<?xml version="1.0" standalone="no"?>
<!DOCTYPE svg PUBLIC "-//W3C//DTD SVG 1.1//EN" "http://www.w3.org/Graphics/SVG/1.1/DTD/svg11.dtd" >
<svg xmlns="http://www.w3.org/2000/svg">
<metadata>
This is a custom SVG webfont generated by Font Squirrel.
Copyright   :  2009 Microsoft Corporation All Rights Reserved
Foundry     : Microsoft Corporation
Foundry URL : httpwwwmicrosoftcomtypographyfonts
</metadata>
<defs>
<font id="webfontkuC2P2qr" horiz-adv-x="1054" >
<font-face units-per-em="2048" ascent="1638" descent="-410" />
<missing-glyph horiz-adv-x="559" />
<glyph unicode=" "  horiz-adv-x="559" />
<glyph unicode="&#x09;" horiz-adv-x="559" />
<glyph unicode="&#xa0;" horiz-adv-x="559" />
<glyph unicode="!" horiz-adv-x="581" d="M211 63q0 35 22.5 57.5t57.5 22.5q31 0 57 -22q25 -23 25 -58q0 -33 -24.5 -57t-57.5 -24q-37 0 -58 24q-22 26 -22 57zM236 1434h106l-10 -1031h-86z" />
<glyph unicode="&#x22;" horiz-adv-x="684" d="M172 1434h96l-10 -449h-76zM420 1434h96l-10 -449h-76z" />
<glyph unicode="#" horiz-adv-x="1236" d="M53 522l19 78h280l76 346h-293l19 78h290l88 410h80l-88 -410h269l88 410h80l-89 -410h275l-19 -78h-272l-76 -346h285l-18 -78h-283l-86 -399h-80l86 399h-268l-86 -399h-80l86 399h-283zM432 600h268l76 346h-268z" />
<glyph unicode="$" d="M162 80v102q150 -98 327 -98v598q-201 117 -262 195q-66 84 -65 194q0 137 88 238q89 101 239 123v182h78v-180q154 0 260 -43v-103q-100 59 -260 60v-607q184 -100 254 -186q72 -88 72 -199q0 -139 -86 -235q-86 -95 -240 -117v-213h-78v209q-190 0 -327 80zM258 1083 q0 -90 45 -153q43 -61 186 -144v560q-111 -18 -170 -89q-61 -70 -61 -174zM567 86q115 23 172.5 88.5t57.5 163.5q0 92 -49 156q-49 66 -181 141v-549z" />
<glyph unicode="%" horiz-adv-x="1605" d="M82 1092q0 176 94 272q94 98 248 98q150 0 238 -96t88 -272q0 -158 -91 -260q-92 -104 -245 -105q-156 0 -244 100.5t-88 262.5zM174 1090q0 -129 63.5 -205t178.5 -76q113 0 178 78t65 209q0 143 -63 213q-66 72 -174 71q-115 0 -182 -77q-66 -74 -66 -213zM317 -33 l863 1465h96l-860 -1465h-99zM866 338q0 174 97 274q94 96 245 97q147 0 238 -99q88 -96 88 -270q0 -156 -92 -260.5t-244 -104.5q-154 0 -242 101q-90 102 -90 262zM958 336q0 -129 63.5 -205t178.5 -76t180 78q63 76 64 209q0 143 -64 213q-66 72 -174 72q-115 0 -182 -78 q-66 -74 -66 -213z" />
<glyph unicode="&#x26;" horiz-adv-x="1425" d="M141 360q0 276 332 424q-162 186 -162 342q0 139 99 236q100 96 254 96q143 0 225 -82t82 -207q0 -139 -82 -233q-86 -100 -262 -178q121 -129 440 -434q123 184 133 434h96q-6 -267 -166 -498l273 -262l-143 2l-193 188q-201 -213 -479 -213q-211 0 -330 109 q-117 107 -117 276zM238 367q0 -135 96 -221.5t262 -86.5q227 0 410 191q-301 291 -469 469q-299 -129 -299 -352zM408 1124q0 -127 155 -301q174 76 242 154q70 80 69.5 180t-63.5 158q-66 59 -156 59q-113 0 -180 -74t-67 -176z" />
<glyph unicode="'" horiz-adv-x="436" d="M172 1434h96l-10 -449h-76z" />
<glyph unicode="(" horiz-adv-x="577" d="M150 545q0 539 307 889h98q-313 -360 -313 -887q0 -500 309 -873h-98q-303 353 -303 871z" />
<glyph unicode=")" horiz-adv-x="577" d="M23 1434h98q307 -350 307 -889q0 -518 -303 -871h-98q309 373 309 873q0 527 -313 887z" />
<glyph unicode="*" horiz-adv-x="829" d="M70 1126l26 86l289 -102l-16 324h94l-14 -324l286 102l27 -86l-293 -75l199 -267l-76 -51l-174 277l-178 -277l-74 51l199 267z" />
<glyph unicode="+" horiz-adv-x="1329" d="M213 555v84h412v412h84v-412h411v-84h-411v-412h-84v412h-412z" />
<glyph unicode="," horiz-adv-x="454" d="M47 -248l150 475h102l-174 -475h-78z" />
<glyph unicode="-" horiz-adv-x="813" d="M145 555v90h547v-90h-547z" />
<glyph unicode="." horiz-adv-x="454" d="M147 63q0 35 23 57.5t57 22.5q31 0 58 -22q25 -23 24 -58q0 -33 -24.5 -57t-57.5 -24q-35 0 -57 24q-23 26 -23 57z" />
<glyph unicode="/" horiz-adv-x="749" d="M-29 -238l693 1672h96l-697 -1672h-92z" />
<glyph unicode="0" d="M94 686q0 384 117 578q117 195 336 194q414 0 414 -735q0 -367 -117 -557.5t-328 -190.5q-199 0 -309 183q-113 184 -113 528zM190 698q0 -309 89 -473q90 -166 249.5 -166t247.5 168t88 482q0 666 -325 665q-164 0 -256 -170q-93 -168 -93 -506z" />
<glyph unicode="1" d="M147 1239v92l443 154v-1401h323v-84h-743v84h328v1280z" />
<glyph unicode="2" d="M82 0v98l391 416q215 231 275 330q66 109 65 235q0 139 -78 217t-221 78q-190 0 -358 -149v108q162 125 370 125q184 0 283 -98q100 -100 100 -266q0 -147 -71 -269q-74 -125 -303 -366l-351 -371v-4h717v-84h-819z" />
<glyph unicode="3" d="M115 51v105q160 -96 309 -97q174 0 270 88q98 90 99 232q0 160 -113 241.5t-320 81.5h-110v84h98q193 0 293 82t100 230q0 129 -73.5 202.5t-212.5 73.5q-137 0 -283 -94v98q164 80 297 80q172 0 270.5 -92t98.5 -244q0 -291 -279 -370v-4q151 -15 240 -111 q90 -96 90 -244q0 -188 -129 -303q-131 -115 -338 -115q-162 0 -307 76z" />
<glyph unicode="4" d="M29 406v77l661 951h92v-945h191v-83h-191v-406h-92v406h-661zM137 489h553v680q0 63 4 129h-4q-33 -59 -51 -86z" />
<glyph unicode="5" d="M156 29v106q137 -76 274 -76q180 0 277 97q98 98 98 258q0 350 -399 350q-90 0 -211 -12v682h645v-84h-553v-510q96 8 153 8q227 0 344 -110.5t117 -311.5q0 -197 -125 -326q-123 -125 -354 -125q-160 1 -266 54z" />
<glyph unicode="6" d="M123 629q0 379 147.5 604t409.5 225q117 0 209 -35v-98q-104 49 -211 49q-209 0 -336 -200q-125 -199 -125 -525h4q104 248 359 248q176 0 284 -127q106 -125 107 -315q0 -209 -121 -346q-119 -133 -307 -134q-197 0 -307 168q-113 173 -113 486zM229 469q0 -170 88 -289 q90 -121 234 -121q139 0 231 107q92 108 92 270q0 166 -83 273q-82 104 -232 104q-145 0 -237 -106q-93 -109 -93 -238z" />
<glyph unicode="7" d="M90 1350v84h864v-25l-575 -1409h-100l557 1350h-746z" />
<glyph unicode="8" d="M109 338q0 272 321 407v5q-272 131 -272 360q0 150 110 248q113 100 281 100q158 0 256 -92t98 -233q0 -244 -289 -379v-4q336 -123 336 -398q0 -168 -116.5 -272.5t-333.5 -104.5q-176 0 -283 101q-108 102 -108 262zM205 342q0 -123 88 -203t237 -80q152 0 238 80 t86 201q0 133 -82 217q-82 86 -254 143q-168 -68 -239 -149q-74 -83 -74 -209zM254 1124q0 -215 272 -327q281 111 281 325q0 117 -76 185q-77 68 -196 67q-115 0 -199 -71q-82 -70 -82 -179z" />
<glyph unicode="9" d="M102 985q0 213 123 342q125 131 310 131q193 0 303 -162q113 -166 112 -487q0 -401 -145 -619q-144 -215 -418 -215q-104 0 -209 37v101q109 -53 211 -54q227 0 346 180.5t119 536.5h-4q-98 -231 -352 -231q-174 0 -285 122.5t-111 317.5zM199 1004q0 -172 90 -275 q88 -100 231 -100q131 0 228 96q94 94 94 231q0 182 -90 301q-88 117 -230 117q-139 0 -231 -104t-92 -266z" />
<glyph unicode=":" horiz-adv-x="454" d="M147 63q0 35 23 57.5t57 22.5q31 0 58 -22q25 -23 24 -58q0 -33 -24.5 -57t-57.5 -24q-35 0 -57 24q-23 26 -23 57zM147 963q0 35 23 57t57 22q31 0 58 -22q25 -20 24 -57q0 -33 -24.5 -57.5t-57.5 -24.5q-35 0 -57 24q-23 27 -23 58z" />
<glyph unicode=";" horiz-adv-x="454" d="M47 -248l150 475h102l-174 -475h-78zM156 963q0 35 22.5 57t57.5 22q31 0 57 -22q25 -20 24 -57q0 -33 -24.5 -57.5t-56.5 -24.5q-35 0 -58 24q-22 27 -22 58z" />
<glyph unicode="&#x3c;" horiz-adv-x="1329" d="M250 580v18l833 467v-94l-677 -379v-4l677 -334v-96z" />
<glyph unicode="=" horiz-adv-x="1329" d="M213 362v84h907v-84h-907zM213 750v84h907v-84h-907z" />
<glyph unicode="&#x3e;" horiz-adv-x="1329" d="M250 158v96l678 334v4l-678 379v94l833 -467v-18z" />
<glyph unicode="?" horiz-adv-x="880" d="M119 1245v107q72 55 149 80q86 27 174 26q76 0 138 -20q65 -22 110 -62q45 -39 74 -100q27 -55 27 -133q0 -55 -17 -105q-14 -43 -40.5 -86t-59.5 -75q-33 -35 -68 -68l-86 -84q-27 -27 -51 -63q-23 -33 -27 -54q-8 -37 -8 -63q0 -51 8 -84q14 -59 17 -64h-82 q-10 29 -17 66q-8 53 -8 82q0 45 13 84q12 37 34 73q23 35 54 66l69 66l64 59q31 31 55 68q23 33 39 79q14 41 14 93q0 55 -18 98q-18 45 -51 74q-35 33 -80 47q-49 16 -103 16q-96 0 -174 -33q-81 -35 -149 -90zM334 63q0 35 22.5 57.5t55 22.5t59.5 -22q23 -20 23 -58 q0 -35 -23 -57q-25 -25 -59 -24q-34 0 -56 24q-22 26 -22 57z" />
<glyph unicode="@" horiz-adv-x="1931" d="M168 616.5q0 358.5 235.5 600t589.5 241.5q350 0 563 -207q211 -205 211 -522q0 -238 -108.5 -389.5t-267.5 -151.5q-221 0 -238 238h-4q-90 -238 -293 -238q-139 0 -221 100.5t-82 268.5q0 227 114.5 378.5t299.5 151.5q78 0 137 -40.5t78 -92.5h4q2 41 10 119h88 l-51 -584q0 -217 153 -217q125 0 205 125q80 127 80 322q0 299 -180 477t-508 178q-317 0 -518 -219t-201 -539q0 -328 190.5 -524t520.5 -196q250 0 426 88v-93q-197 -80 -436 -79q-362 0 -579.5 223t-217.5 581.5zM649 565q0 -137 57.5 -215t159.5 -78q137 0 217 140 q80 137 80 354q0 115 -53 178q-51 59 -147 60q-143 0 -230 -119q-84 -117 -84 -320z" />
<glyph unicode="A" horiz-adv-x="1286" d="M59 0l541 1434h94l535 -1434h-111l-164 446h-622l-164 -446h-109zM367 537h553l-242 663q-12 29 -19 60q-8 33 -14 49h-4l-33 -107z" />
<glyph unicode="B" horiz-adv-x="1112" d="M184 0v1434h377q170 0 268 -91q100 -92 101 -241q0 -127 -66 -217q-68 -92 -186 -129v-4q150 -14 235.5 -106.5t85.5 -235.5q0 -181 -116 -295q-119 -115 -314 -115h-385zM283 90h266q169 0 258 80q90 80 90 231q0 297 -403 297h-211v-608zM283 788h200q156 0 250 80 t94 217q0 258 -305 258h-239v-555z" />
<glyph unicode="C" horiz-adv-x="1271" d="M109 688q0 346 200 559q199 211 512 211q162 0 316 -53v-105q-150 68 -318 68q-270 0 -438 -182q-170 -186 -170 -488q0 -295 162 -462q164 -170 409 -170q195 0 355 77v-96q-178 -72 -363 -72q-295 0 -479 197q-186 199 -186 516z" />
<glyph unicode="D" horiz-adv-x="1378" d="M184 0v1434h359q354 0 542 -179q186 -178 187 -518q0 -328 -199 -532.5t-551 -204.5h-338zM283 90h225q317 0 489 166t172 477q0 610 -641 610h-245v-1253z" />
<glyph unicode="E" horiz-adv-x="1024" d="M184 0v1434h670v-91h-571v-575h530v-90h-530v-588h604v-90h-703z" />
<glyph unicode="F" horiz-adv-x="950" d="M184 0v1434h670v-91h-571v-585h530v-90h-530v-668h-99z" />
<glyph unicode="G" horiz-adv-x="1366" d="M109 696q0 324 194.5 543t521.5 219q190 0 367 -76v-108q-190 94 -381 94q-270 0 -436 -184q-164 -182 -164 -473q0 -301 153.5 -473t417.5 -172q190 0 340 84v473h-338v90h437v-613q-219 -125 -457 -125q-293 0 -473 199q-182 200 -182 522z" />
<glyph unicode="H" horiz-adv-x="1384" d="M184 0v1434h99v-656h821v656h98v-1434h-98v688h-821v-688h-99z" />
<glyph unicode="I" horiz-adv-x="462" d="M43 0v90h139v1253h-139v91h379v-91h-141v-1253h141v-90h-379z" />
<glyph unicode="J" horiz-adv-x="663" d="M18 -10v96q55 -20 111 -20q137 0 198.5 104t61.5 326v938h98v-940q0 -518 -360 -519q-60 1 -109 15z" />
<glyph unicode="K" horiz-adv-x="1077" d="M184 0v1434h99v-676h4q10 18 26 35l580 641h129l-629 -695l668 -739h-139l-611 686q-18 18 -24 33h-4v-719h-99z" />
<glyph unicode="L" horiz-adv-x="937" d="M184 0v1434h99v-1344h575v-90h-674z" />
<glyph unicode="M" horiz-adv-x="1705" d="M184 0v1434h92l535 -1155q2 -4 10 -27q2 -6 7.5 -17.5t7.5 -17.5t9 -25.5l11 -31.5h6l10 33l4 10q3 10 13 34.5t18 49.5l527 1147h88v-1434h-95v1018q0 66 11 211h-4q-37 -98 -52 -125l-510 -1104h-32l-512 1098q-27 57 -47 135h-5q6 -95 7 -191v-1042h-99z" />
<glyph unicode="N" horiz-adv-x="1449" d="M184 0v1434h76l848 -1149q28 -37 61 -92h5q-4 47 -5 120v1121h99v-1434h-70l-854 1159q-6 8 -45 70l-14 20h-4q2 -16 2 -63v-1186h-99z" />
<glyph unicode="O" horiz-adv-x="1558" d="M109 702q0 340 186 549q184 207 506 207q291 0 469 -198q180 -203 180 -521q0 -358 -184.5 -561t-491.5 -203q-305 0 -485 200.5t-180 526.5zM211 713q0 -295 153.5 -471t407.5 -176q266 0 422 174q154 172 154 483q0 301 -152 475q-150 170 -412 170q-250 0 -411.5 -180 t-161.5 -475z" />
<glyph unicode="P" horiz-adv-x="1112" d="M184 0v1434h346q219 0 338 -103q117 -102 117 -298.5t-131 -327.5q-129 -129 -365 -130h-206v-575h-99zM283 666h204q194 0 295 92q100 92 101 262q0 324 -371 323h-229v-677z" />
<glyph unicode="Q" horiz-adv-x="1542" d="M102 700q0 344 184.5 551t508.5 207q287 0 469 -201q180 -199 180 -522q0 -133 -35 -266q-33 -127 -104.5 -229.5t-178.5 -169.5q-104 -66 -260 -88q63 -68 119 -119q45 -41 111 -86q49 -33 114 -53q58 -18 129 -19q4 0 16.5 1t18.5 1q14 0 39 4q6 2 18.5 4t18.5 4 q16 2 35 11v-95q-33 -10 -72 -16q-43 -6 -84 -6q-98 0 -172 27q-61 23 -141 79q-63 47 -129 115l-131 141q-135 0 -260 52q-123 51 -213 149q-181 198 -181 524zM205 715q0 -289 153 -471q158 -178 408 -178q268 0 421.5 170t153.5 477q0 313 -149 483q-152 172 -414 172 q-256 0 -416 -180q-80 -92 -118.5 -206.5t-38.5 -266.5z" />
<glyph unicode="R" horiz-adv-x="1136" d="M184 0v1434h398q190 0 298.5 -102.5t108.5 -270.5q0 -152 -90 -258q-90 -104 -248 -135v-4q86 -33 166 -207l213 -457h-112l-191 420q-59 129 -119 174q-61 45 -147 45h-178v-639h-99zM283 729h247q166 0 261 86q96 86 96 236q0 138 -86 215q-88 78 -250 77h-268v-614z " />
<glyph unicode="S" horiz-adv-x="1017" d="M139 51v113q154 -98 312 -98q172 0 256 69q86 70 86 195q0 113 -58 176q-55 61 -254 178q-217 125 -276 213q-57 84 -58 197q0 151 117 258q115 106 316 106q127 0 256 -43v-104q-123 57 -268.5 57t-231.5 -73.5t-86 -188.5q0 -109 59 -174q63 -72 252 -178 q201 -115 268 -203q66 -86 66 -203q0 -164 -115 -268q-113 -104 -323 -105q-70 0 -170 23q-93 20 -148 53z" />
<glyph unicode="T" horiz-adv-x="1046" d="M61 1343v91h926v-91h-414v-1343h-98v1343h-414z" />
<glyph unicode="U" horiz-adv-x="1325" d="M166 551v883h98v-869q0 -500 406 -499q393 0 393 485v883h98v-861q0 -598 -510 -598q-485 1 -485 576z" />
<glyph unicode="V" horiz-adv-x="1236" d="M41 1434h111l415 -1155q25 -71 37 -136h4q8 45 41 138l441 1153h106l-557 -1434h-74z" />
<glyph unicode="W" horiz-adv-x="1832" d="M51 1434h111l327 -1149q20 -74 31 -127h4q6 33 35 127l354 1149h50l325 -1149q20 -78 31 -127h4q10 43 16 63l336 1213h107l-420 -1434h-82l-319 1079q-23 78 -27 135h-4q-4 -45 -31 -133l-340 -1081h-82z" />
<glyph unicode="X" horiz-adv-x="1150" d="M61 0l453 723l-426 711h119l321 -539q25 -43 52 -96h4l53 96l319 539h115l-430 -709l440 -725h-120l-330 547q-37 61 -53 100h-5q-29 -57 -57 -100l-336 -547h-119z" />
<glyph unicode="Y" horiz-adv-x="1105" d="M61 1434h111l334 -691q16 -31 45 -106h4q15 37 49 104l350 693h107l-463 -889v-545h-98v543z" />
<glyph unicode="Z" horiz-adv-x="1165" d="M66 0v31l868 1312h-799v91h952v-27l-872 -1317h858v-90h-1007z" />
<glyph unicode="[" horiz-adv-x="577" d="M209 -326v1760h317v-84h-225v-1592h225v-84h-317z" />
<glyph unicode="\" horiz-adv-x="749" d="M-29 1434h97l692 -1672h-92z" />
<glyph unicode="]" horiz-adv-x="577" d="M51 -242h225v1592h-225v84h318v-1760h-318v84z" />
<glyph unicode="^" horiz-adv-x="1329" d="M260 702l385 756h41l385 -756h-96l-307 613h-4l-308 -613h-96z" />
<glyph unicode="_" horiz-adv-x="849" d="M0 -178h850v-90h-850v90z" />
<glyph unicode="`" horiz-adv-x="507" d="M76 1516h104l234 -328h-90z" />
<glyph unicode="a" horiz-adv-x="1011" d="M106 264q0 268 355 324l315 47q0 330 -248 330q-170 0 -329 -136v111q61 49 155 78q98 31 183 31q160 0 245.5 -98.5t85.5 -284.5v-666h-92v205h-4q-49 -104 -143 -168q-92 -61 -207 -62q-147 0 -231.5 82t-84.5 207zM203 268q0 -92 61 -149q63 -59 168 -60 q150 0 246 109q98 111 98 283v100l-282 -41q-162 -23 -226 -74q-65 -53 -65 -168z" />
<glyph unicode="b" horiz-adv-x="1146" d="M164 0v1516h92v-703h4q53 111 158 174q102 61 225 62q197 0 305.5 -133.5t108.5 -366.5q0 -254 -127 -416q-125 -158 -330 -158q-229 0 -340 207h-4v-182h-92zM256 434q0 -156 96 -264q98 -111 256 -111t254 134q98 135 99 354q0 190 -91 305q-88 113 -239 113 q-178 0 -277 -119q-98 -120 -98 -283v-129z" />
<glyph unicode="c" horiz-adv-x="907" d="M90 494q0 244 143.5 399.5t370.5 155.5q121 0 227 -48v-104q-111 68 -241 68q-180 0 -291 -129q-113 -131 -113 -336q0 -199 102.5 -320t270.5 -121q156 0 268 82v-96q-113 -70 -272 -70q-209 0 -338 144q-127 142 -127 375z" />
<glyph unicode="d" horiz-adv-x="1146" d="M90 494q0 246 131 401q129 154 338 154q231 0 328 -189h4v656h92v-1516h-92v186h-4q-47 -94 -148 -153q-96 -57 -221 -58q-190 0 -309 137.5t-119 381.5zM186 502q0 -213 94.5 -328t243.5 -115q174 0 270.5 108.5t96.5 264.5v191q0 143 -90 243q-88 98 -244 99 q-162 0 -266.5 -123t-104.5 -340z" />
<glyph unicode="e" horiz-adv-x="1032" d="M90 518q0 225 127 377q129 154 332 154q193 0 293 -134q102 -137 102 -366v-41h-758q0 -213 97 -330q98 -119 268 -119q172 0 336 127v-98q-158 -113 -354.5 -113t-319.5 141.5t-123 401.5zM190 592h658q-6 178 -84 274q-80 98 -219 99q-141 0 -238 -97 q-95 -95 -117 -276z" />
<glyph unicode="f" horiz-adv-x="563" d="M35 940v84h184v178q0 164 82 246q84 84 203 84q66 0 108 -19v-94q-39 29 -112 29q-188 0 -189 -254v-170h271v-84h-271v-940h-92v940h-184z" />
<glyph unicode="g" horiz-adv-x="1146" d="M90 494q0 248 129 401.5t340 153.5q227 0 328 -187h4v162h92v-948q0 -285 -127 -422q-127 -135 -391 -135q-145 0 -305 78v96q164 -90 307 -90q424 0 424 448v133h-4q-120 -209 -369 -209q-190 0 -309 137.5t-119 381.5zM186 502q0 -211 95 -326q96 -117 249 -117 q164 0 263 107q98 109 98 262v203q0 137 -92 235.5t-238 98.5q-168 0 -272 -127q-103 -123 -103 -336z" />
<glyph unicode="h" horiz-adv-x="1095" d="M164 0v1516h92v-676h4q121 209 352 209q166 0 252 -107q88 -111 88 -307v-635h-92v614q0 178 -65 267q-63 84 -207 84q-131 0 -231.5 -102.5t-100.5 -295.5v-567h-92z" />
<glyph unicode="i" horiz-adv-x="419" d="M133 1360q0 33 22.5 53.5t53.5 20.5q33 0 55.5 -20.5t22.5 -53.5t-22.5 -55.5t-55.5 -22.5q-31 0 -53.5 22.5t-22.5 55.5zM164 0v1024h92v-1024h-92z" />
<glyph unicode="j" horiz-adv-x="419" d="M-252 -350q82 -47 156 -47q260 0 260 409v1012h92v-995q0 -510 -362 -510q-70 0 -146 35v96zM133 1360q0 33 22.5 53.5t53.5 20.5q33 0 55.5 -20.5t22.5 -53.5t-22.5 -55.5t-55.5 -22.5q-31 0 -53.5 22.5t-22.5 55.5z" />
<glyph unicode="k" horiz-adv-x="907" d="M164 0v1516h92v-977h4l465 485h119l-486 -496l525 -528h-133l-490 506h-4v-506h-92z" />
<glyph unicode="l" horiz-adv-x="419" d="M164 0v1516h92v-1516h-92z" />
<glyph unicode="m" horiz-adv-x="1681" d="M164 0v1024h92v-170h4q109 195 313 195q113 0 191 -64q80 -66 108 -170q49 111 137.5 172.5t194.5 61.5q336 0 336 -416v-633h-92v616q0 194 -62 271q-61 78 -190 78q-120 0 -209 -105q-88 -102 -88 -260v-600h-92v623q0 342 -260 342q-125 0 -207 -105 q-84 -106 -84 -270v-590h-92z" />
<glyph unicode="n" horiz-adv-x="1095" d="M164 0v1024h92v-186h4q111 211 350 211q164 0 254 -111q88 -109 88 -315v-623h-92v596q0 369 -266 369q-147 0 -244 -109q-94 -106 -94 -268v-588h-92z" />
<glyph unicode="o" horiz-adv-x="1148" d="M90 506q0 252 137 399q135 143 359 144q221 0 346 -144q127 -145 127 -395q0 -240 -129 -387.5t-354.5 -147.5t-354.5 148q-131 150 -131 383zM186 504q0 -201 105 -324q102 -121 286.5 -121t285 119t100.5 334q0 219 -98.5 336t-282.5 117q-182 0 -289 -121t-107 -340z " />
<glyph unicode="p" horiz-adv-x="1146" d="M164 -471v1495h92v-211h4q53 111 158 174q102 61 225 62q197 0 305.5 -133.5t108.5 -366.5q0 -258 -125 -416t-332 -158q-229 0 -340 207h-4v-653h-92zM256 434q0 -156 96 -264q98 -111 256 -111t254 134q98 135 99 354q0 190 -91 305q-88 113 -239 113q-178 0 -277 -119 q-98 -120 -98 -283v-129z" />
<glyph unicode="q" horiz-adv-x="1146" d="M90 496q0 252 133 403q131 150 338 150q227 0 326 -191h4v166h92v-1495h-92v659h-4q-115 -213 -371 -213q-193 0 -309.5 141.5t-116.5 379.5zM186 500q0 -207 92.5 -324t243.5 -117q178 0 275 111q94 109 94 268v176q0 156 -88 252q-90 98 -248 99q-160 0 -264.5 -123 t-104.5 -342z" />
<glyph unicode="r" horiz-adv-x="675" d="M164 0v1024h90v-227h4q35 119 111 182q78 66 176 65q57 0 102 -18v-98q-45 33 -108 33q-121 0 -203 -125t-82 -355v-481h-90z" />
<glyph unicode="s" horiz-adv-x="794" d="M111 45v111q49 -43 127 -70q80 -27 127 -27q242 0 241 197q0 68 -53 117q-47 43 -172 98q-147 66 -207 133q-59 70 -59 166q0 125 96 203q94 76 235 76q133 0 226 -54v-104q-115 74 -236 74q-104 0 -164 -52q-61 -53 -61 -137q0 -74 39 -119q40 -46 172 -104 q154 -68 219 -133q61 -61 61 -164q0 -121 -92 -201t-252 -80q-151 0 -247 70z" />
<glyph unicode="t" horiz-adv-x="606" d="M23 940v84h184v266l47 17q29 6 45 14v-297h270v-84h-270v-676q0 -109 33 -153q35 -47 114 -48q58 0 123 37v-86q-74 -35 -135 -34q-227 0 -227 272v688h-184z" />
<glyph unicode="u" horiz-adv-x="1095" d="M143 432v592h93v-569q0 -203 69 -301q68 -94 215 -95q143 0 232 105q88 102 88 280v580h92v-1024h-92v186h-4q-106 -211 -330 -211q-363 0 -363 457z" />
<glyph unicode="v" horiz-adv-x="927" d="M20 1024h103l305 -815q23 -59 31 -107h4q10 55 29 103l315 819h100l-407 -1024h-84z" />
<glyph unicode="w" horiz-adv-x="1384" d="M37 1024h102l238 -817q8 -25 14 -86h8q4 43 19 86l260 817h63l232 -817q8 -23 14 -86h8q0 35 17 86l243 817h95l-318 -1024h-86l-223 772q-10 37 -16 86h-5q-4 -31 -20 -84l-250 -774h-86z" />
<glyph unicode="x" horiz-adv-x="860" d="M33 0l342 500l-336 524h108l228 -367q51 -84 53 -88h4l51 84l238 371h108l-348 -522l334 -502h-117l-270 432h-4l-37 -57q-2 -4 -8 -13.5t-8 -13.5l-226 -348h-112z" />
<glyph unicode="y" horiz-adv-x="927" d="M20 1024h103l309 -834l7 -20l7 -20q4 -25 9 -35h4l24 69l330 840h100l-499 -1233q-55 -137 -123 -204.5t-176 -67.5q-49 0 -80 14v92q35 -14 84 -14q123 0 194 170l95 227z" />
<glyph unicode="z" horiz-adv-x="948" d="M57 0v35l680 905h-631v84h787v-25l-686 -915h661v-84h-811z" />
<glyph unicode="{" horiz-adv-x="577" d="M94 522v64q156 20 156 243v314q0 150 65 219q61 66 191 72v-84q-86 -6 -123 -58t-37 -178v-293q0 -223 -145 -266v-4q145 -47 145 -281v-276q0 -126 37 -178q37 -51 123 -58v-84q-129 6 -191 72q-66 70 -65 219v297q0 240 -156 260z" />
<glyph unicode="|" horiz-adv-x="462" d="M184 -481v2048h95v-2048h-95z" />
<glyph unicode="}" horiz-adv-x="577" d="M72 -242q82 6 120.5 53.5t38.5 182.5v276q0 236 146 281v4q-145 45 -146 266v293q0 135 -38.5 182t-120.5 54v84q131 -6 192 -72q63 -66 64 -219v-314q0 -221 155 -243v-64q-156 -23 -155 -260v-297q0 -154 -64 -219q-61 -66 -192 -72v84z" />
<glyph unicode="~" horiz-adv-x="1329" d="M246 479q6 114 67 178q61 63 166 64q94 0 195 -80q61 -49 104 -72q33 -18 80 -18q133 0 152 160h77q-6 -111 -69 -179q-61 -63 -164 -63q-92 0 -201 84q-106 84 -176 84q-141 0 -153 -158h-78z" />
<glyph unicode="&#xa1;" horiz-adv-x="581" d="M211 961q0 33 24.5 57t57.5 24q35 0 57 -24q23 -27 23 -57q0 -35 -22.5 -57.5t-57.5 -22.5q-31 0 -57 22q-25 23 -25 58zM242 -408l10 1031h86l10 -1031h-106z" />
<glyph unicode="&#xa2;" d="M166 657q0 213 115 365q113 150 309 184v199h92v-193q115 0 225 -47v-104q-104 63 -225 67v-903q129 9 221 80v-96q-92 -55 -221 -68v-198h-92v198q-197 18 -309 158q-115 143 -115 358zM262 664q0 -184 86 -302q84 -115 242 -137v897q-154 -28 -240 -153 q-88 -129 -88 -305z" />
<glyph unicode="&#xa3;" d="M80 0v86q248 104 248 365v211h-228v90h228v290q0 187 98 301q98 115 264 115q94 0 182 -35v-94q-88 45 -186 45q-125 0 -194 -88q-72 -90 -72 -256v-278h307v-90h-307v-177q0 -293 -213 -401h741v-84h-868z" />
<glyph unicode="&#xa4;" horiz-adv-x="1138" d="M133 354l137 131q-84 119 -84 240q0 137 84 240l-137 133l60 61l135 -135q115 84 241 84q133 0 240 -84l137 135l60 -61l-138 -133q84 -102 84 -240q0 -131 -84 -240l138 -131l-60 -61l-135 135q-104 -86 -242 -86q-139 0 -241 86l-135 -135zM270 727q0 -121 90.5 -211 t208.5 -90q123 0 211 88t88 213t-90 211t-207 86q-129 0 -215 -88q-86 -89 -86 -209z" />
<glyph unicode="&#xa5;" d="M74 1434h102l307 -572q39 -72 47 -96h5q23 70 43 100l311 568h96l-383 -689h344v-83h-373v-246h373v-84h-373v-332h-92v332h-372v84h372v246h-372v83h342z" />
<glyph unicode="&#xa6;" horiz-adv-x="462" d="M184 371h95v-852h-95v852zM184 715v852h95v-852h-95z" />
<glyph unicode="&#xa7;" horiz-adv-x="917" d="M166 737q0 174 162 256q-123 84 -123 219q0 125 82 201q84 78 227 78q109 0 195 -37v-96q-86 49 -197 49q-211 0 -211 -188q0 -80 55.5 -131.5t212.5 -122.5q203 -96 203 -279q0 -163 -154 -283q94 -70 95 -200q0 -115 -88 -191q-90 -78 -232 -78q-106 0 -217 50v98 q115 -63 219 -64q109 0 164 50q57 51 57 133q0 53 -30 102q-31 47 -142 100q-172 80 -227 162q-51 76 -51 172zM262 743q0 -96 60 -155q57 -57 223 -131q74 55 100 100q31 49 31 129t-47 129q-53 57 -223 131q-144 -64 -144 -203z" />
<glyph unicode="&#xa8;" horiz-adv-x="815" d="M170 1259.5q0 32.5 23 51.5q20 18 47 18q29 0 53 -20q23 -18 22.5 -49t-21 -51.5t-52.5 -20.5q-25 0 -49 20q-23 19 -23 51.5zM504 1259.5q0 32.5 22.5 51t47 18.5t51.5 -20q25 -18 24 -49q0 -29 -22 -52q-20 -20 -52 -20q-25 0 -49 20q-22 19 -22 51.5z" />
<glyph unicode="&#xa9;" horiz-adv-x="1802" d="M156 715q0 311 219 526q221 217 526 217q309 0 528.5 -217t219.5 -524q0 -305 -219 -524q-217 -217 -527 -218q-307 0 -528 218q-219 215 -219 522zM236 715q0 -270 194 -469q193 -195 471 -195q276 0 473 197q195 195 195 467q0 274 -196.5 470.5t-471.5 196.5 q-272 0 -468.5 -196.5t-196.5 -470.5zM436 690q0 246 146 391q143 143 366 144q129 0 230 -54v-86q-106 57 -246 58q-170 0 -287 -117t-117 -315q0 -195 121 -310q125 -119 293 -118q129 0 240 67v-80q-125 -72 -250 -71q-207 0 -352 141q-144 141 -144 350z" />
<glyph unicode="&#xaa;" horiz-adv-x="743" d="M76 903q0 199 256 236l225 32q0 203 -166 203q-133 0 -254 -92v96q127 76 262 76q248 0 248 -274v-463h-90v143h-4q-37 -74 -107 -117q-71 -43 -147 -43q-104 0 -163.5 59.5t-59.5 143.5zM168 907q0 -59 39 -92q41 -35 110 -35q98 0 168 82q72 84 72 189v45l-188 -27 q-113 -14 -158 -51q-43 -34 -43 -111z" />
<glyph unicode="&#xab;" horiz-adv-x="950" d="M123 537l276 344h113l-281 -344l281 -336h-113zM440 537l277 344h114l-282 -344l280 -336h-112z" />
<glyph unicode="&#xac;" horiz-adv-x="1329" d="M213 555v84h907v-492h-86v408h-821z" />
<glyph unicode="&#xad;" horiz-adv-x="813" d="M145 555v90h547v-90h-547z" />
<glyph unicode="&#xae;" horiz-adv-x="1802" d="M156 715q0 311 219 526q221 217 526 217q309 0 528.5 -217t219.5 -524q0 -305 -219 -524q-217 -217 -527 -218q-307 0 -528 218q-219 215 -219 522zM236 715q0 -270 194 -469q193 -195 471 -195q276 0 473 197q195 195 195 467q0 274 -196.5 470.5t-471.5 196.5 q-272 0 -468.5 -196.5t-196.5 -470.5zM629 242v966h264q162 0 246 -69q86 -71 86 -185q0 -221 -252 -268v-4q84 -18 160 -174l127 -266h-105l-115 247q-47 102 -98 144q-46 37 -104 37h-117v-428h-92zM721 741h194q100 0 156 54q59 55 59 143q0 199 -239 199h-170v-396z" />
<glyph unicode="&#xaf;" horiz-adv-x="849" d="M0 1731h850v-90h-850v90z" />
<glyph unicode="&#xb0;" horiz-adv-x="790" d="M143 1184q0 102 74 176t176 74q106 0 180 -74t74 -176q0 -106 -73.5 -180t-176.5 -74q-104 0 -180 76q-74 74 -74 178zM225 1184q0 -74 49 -125q49 -53 119 -53t119 53q51 55 51 125q0 76 -49 125t-117 49q-72 0 -121 -51q-51 -55 -51 -123z" />
<glyph unicode="&#xb1;" horiz-adv-x="1329" d="M213 0v84h907v-84h-907zM213 633v84h412v411h84v-411h411v-84h-411v-412h-84v412h-412z" />
<glyph unicode="&#xb2;" horiz-adv-x="673" d="M596 883h-518v100l239 234q45 43 97 102q41 47 57 78q18 34 25 61q6 29 6 60q0 154 -158 153q-111 0 -221 -98v102q49 33 113 58q53 20 114 20q53 0 103 -16q47 -16 75 -45q31 -31 50 -70q16 -35 16 -92q0 -37 -10.5 -78t-33 -80t-67.5 -94q-29 -35 -108 -115l-193 -186 v-4h414v-90z" />
<glyph unicode="&#xb3;" horiz-adv-x="673" d="M561 1110q0 -53 -18 -100q-18 -46 -56 -80q-39 -37 -88 -53q-51 -18 -118 -19q-104 0 -193 47v96q100 -63 195 -63q90 0 141 47t51 125q0 168 -235 168h-70v80h61q215 0 215 172q0 137 -153 137q-70 0 -172 -53v90q53 23 96 35q39 10 94 10q53 0 94 -14.5t70 -42.5 q31 -31 45.5 -66t14.5 -84q0 -163 -148 -215v-4q86 -18 129 -78q45 -61 45 -135z" />
<glyph unicode="&#xb4;" horiz-adv-x="507" d="M137 1188l234 328h104l-248 -328h-90z" />
<glyph unicode="&#xb5;" horiz-adv-x="1114" d="M164 -391v1415h92v-569q0 -213 70 -303q72 -92 215 -93q145 0 231 105q88 106 88 280v580h92v-1024h-92v186h-4q-104 -211 -330 -211q-176 0 -262 123h-8v-489h-92z" />
<glyph unicode="&#xb6;" horiz-adv-x="970" d="M113 1167q0 121 75 195q74 72 181 72h495v-86h-131v-1348h-86v1348h-198v-1348h-87v903q-109 0 -178 76q-71 77 -71 188z" />
<glyph unicode="&#xb7;" horiz-adv-x="454" d="M147 707q0 35 23 57t57 22q31 0 58 -22q25 -23 24 -57q0 -33 -24.5 -57.5t-57.5 -24.5q-35 0 -57 24q-23 27 -23 58z" />
<glyph unicode="&#xb8;" horiz-adv-x="411" d="M57 -356q49 -6 86 -6q160 0 160 92q0 86 -145 86q-23 0 -64 -4v188h72v-117q225 0 225 -147q0 -170 -254 -170q-23 0 -80 4v74z" />
<glyph unicode="&#xb9;" horiz-adv-x="673" d="M600 883h-471v82h195v682l-209 -70v88l295 94v-794h190v-82z" />
<glyph unicode="&#xba;" horiz-adv-x="808" d="M72 1073q0 180 98 280.5t256 100.5t250 -100.5t92 -278.5q0 -164 -94 -270q-96 -109 -254 -109t-252 107q-96 108 -96 270zM166 1071q0 -135 70 -213q72 -80 186 -80q120 0 184 80q66 82 66 219q0 135 -66 217q-66 80 -182.5 80t-187.5 -82q-70 -78 -70 -221z" />
<glyph unicode="&#xbb;" horiz-adv-x="950" d="M121 201l285 344l-285 336h115l276 -336l-274 -344h-117zM440 201l283 344l-283 336h113l278 -336l-278 -344h-113z" />
<glyph unicode="&#xbc;" horiz-adv-x="1511" d="M115 1278v88l295 94v-794h190v-82h-471v82h195v682zM332 0l862 1434h96l-860 -1434h-98zM883 219v64l385 567h90v-553h110v-78h-110v-219h-82v219h-393zM983 297h293v369l2 75h-4q-37 -70 -45 -77z" />
<glyph unicode="&#xbd;" horiz-adv-x="1619" d="M115 1278v88l295 94v-794h190v-82h-471v82h195v682zM332 0l862 1434h96l-860 -1434h-98zM1024 0v100l240 234q45 43 96 102q45 51 57 76q18 33 25 63q6 27 6 60q0 154 -158 153q-111 0 -221 -98v103q113 78 227 77q53 0 103 -16q47 -14 76 -45q31 -31 49 -72 q16 -35 16 -90q0 -35 -10 -76q-10 -43 -32.5 -81.5t-67.5 -94.5q-29 -35 -109 -114l-193 -187v-4h414v-90h-518z" />
<glyph unicode="&#xbe;" horiz-adv-x="1511" d="M88 606v96q100 -63 195 -63q90 0 141 47t51 125q0 168 -235 168h-70v80h61q215 0 215 172q0 137 -153 137q-70 0 -172 -53v90q53 23 96 35q39 10 94 10q53 0 94 -14.5t70 -42.5q31 -31 45.5 -66t14.5 -84q0 -163 -148 -215v-4q86 -18 129 -78q45 -61 45 -135 q0 -53 -18 -100q-18 -46 -56 -80q-39 -37 -88 -53q-51 -18 -118 -19q-105 0 -193 47zM332 0l862 1434h96l-860 -1434h-98zM883 219v64l385 567h90v-553h110v-78h-110v-219h-82v219h-393zM983 297h293v369l2 75h-4q-37 -70 -45 -77z" />
<glyph unicode="&#xbf;" horiz-adv-x="880" d="M143 -119q0 55 17 105q14 43 40.5 86t59.5 75q33 35 68 68l86 84q33 33 53 63q18 29 25 54q8 37 8 63q0 51 -8 84q-14 59 -17 64h82q14 -37 18 -66q6 -41 7 -82q0 -45 -13 -84q-12 -37 -34 -73q-23 -35 -54 -66l-69 -66l-64 -59q-31 -31 -55 -68q-23 -33 -39 -79 q-14 -41 -14 -93q0 -55 18 -98q18 -45 51 -74q35 -33 80 -47q49 -16 103 -16q96 0 174 33q82 35 149 90v-107q-72 -55 -149 -80q-86 -27 -174 -26q-76 0 -138 20q-65 22 -110 62q-45 39 -74 100q-27 55 -27 133zM440 961q0 35 23 57q25 25 59 24q34 0 56 -24q23 -27 22 -57 q0 -35 -22.5 -57.5t-55.5 -22.5t-59 22q-23 21 -23 58z" />
<glyph unicode="&#xc0;" horiz-adv-x="1286" d="M59 0l541 1434h94l535 -1434h-111l-164 446h-622l-164 -446h-109zM367 537h553l-242 663q-12 29 -19 60q-8 33 -14 49h-4l-33 -107zM471 1864h104l234 -328h-90z" />
<glyph unicode="&#xc1;" horiz-adv-x="1286" d="M59 0l541 1434h94l535 -1434h-111l-164 446h-622l-164 -446h-109zM367 537h553l-242 663q-12 29 -19 60q-8 33 -14 49h-4l-33 -107zM475 1530l234 328h104l-248 -328h-90z" />
<glyph unicode="&#xc2;" horiz-adv-x="1286" d="M59 0l541 1434h94l535 -1434h-111l-164 446h-622l-164 -446h-109zM367 537h553l-242 663q-12 29 -19 60q-8 33 -14 49h-4l-33 -107zM399 1534l221 336h45l219 -336h-86l-157 239l-160 -239h-82z" />
<glyph unicode="&#xc3;" horiz-adv-x="1286" d="M59 0l541 1434h94l535 -1434h-111l-164 446h-622l-164 -446h-109zM367 537h553l-242 663q-12 29 -19 60q-8 33 -14 49h-4l-33 -107zM342 1532q0 100 47 160q49 61 129 61q70 0 160 -72q70 -59 117 -59q40 0 67 37q29 39 29 108h74q0 -104 -47.5 -163.5t-131.5 -59.5 q-68 0 -151 76q-63 55 -119 55q-102 0 -102 -143h-72z" />
<glyph unicode="&#xc4;" horiz-adv-x="1286" d="M59 0l541 1434h94l535 -1434h-111l-164 446h-622l-164 -446h-109zM367 537h553l-242 663q-12 29 -19 60q-8 33 -14 49h-4l-33 -107zM408 1601.5q0 32.5 23 51.5q20 18 47 18q29 0 53 -20q23 -18 22.5 -49t-21 -51.5t-52.5 -20.5q-25 0 -49 20q-23 19 -23 51.5z M742 1601.5q0 32.5 22.5 51t47 18.5t51.5 -20q25 -18 24 -49q0 -29 -22 -52q-20 -20 -52 -20q-25 0 -49 20q-22 19 -22 51.5z" />
<glyph unicode="&#xc5;" horiz-adv-x="1286" d="M59 0l519 1374q-133 43 -134 176q0 80 60 133q57 51 141 51.5t143 -48.5q57 -49 58 -136q0 -129 -131 -174l514 -1376h-111l-164 446h-622l-164 -446h-109zM367 537h553l-242 663q-12 29 -19 60q-8 33 -14 49h-4l-33 -107zM518 1550.5q0 -53.5 37 -84.5q39 -33 90 -32 q53 0 92 32q37 31 37 84q0 55 -37 86t-92 31t-92 -33q-35 -30 -35 -83.5z" />
<glyph unicode="&#xc6;" horiz-adv-x="1705" d="M16 0l697 1434h803v-97h-572v-571h531v-90h-531v-586h604v-90h-702v446h-502l-219 -446h-109zM385 537h461v800h-78z" />
<glyph unicode="&#xc7;" horiz-adv-x="1271" d="M109 688q0 346 200 559q199 211 512 211q162 0 316 -53v-105q-150 68 -318 68q-270 0 -438 -182q-170 -186 -170 -488q0 -295 162 -462q164 -170 409 -170q195 0 355 77v-96q-213 -86 -420 -70v-94q225 0 225 -147q0 -170 -254 -170q-23 0 -80 4v74q49 -6 86 -6 q160 0 160 92q0 86 -145 86q-23 0 -64 -4v174q-252 45 -393 237q-143 193 -143 465z" />
<glyph unicode="&#xc8;" horiz-adv-x="1024" d="M184 0v1434h670v-91h-571v-575h530v-90h-530v-588h604v-90h-703zM307 1864h104l234 -328h-90z" />
<glyph unicode="&#xc9;" horiz-adv-x="1024" d="M184 0v1434h670v-91h-571v-575h530v-90h-530v-588h604v-90h-703zM416 1532l234 328h104l-248 -328h-90z" />
<glyph unicode="&#xca;" horiz-adv-x="1024" d="M184 0v1434h670v-91h-571v-575h530v-90h-530v-588h604v-90h-703zM299 1536l221 336h45l219 -336h-86l-157 239l-160 -239h-82z" />
<glyph unicode="&#xcb;" horiz-adv-x="1024" d="M184 0v1434h670v-91h-571v-575h530v-90h-530v-588h604v-90h-703zM309 1607.5q0 32.5 23 51.5q20 18 47 18q29 0 53 -20q23 -18 22.5 -49t-21 -51.5t-52.5 -20.5q-25 0 -49 20q-23 19 -23 51.5zM643 1607.5q0 32.5 22.5 51t47 18.5t51.5 -20q25 -18 24 -49q0 -29 -22 -52 q-20 -20 -52 -20q-25 0 -49 20q-22 19 -22 51.5z" />
<glyph unicode="&#xcc;" horiz-adv-x="462" d="M43 0v90h139v1253h-139v91h379v-91h-141v-1253h141v-90h-379zM-37 1864h104l234 -328h-90z" />
<glyph unicode="&#xcd;" horiz-adv-x="462" d="M43 0v90h139v1253h-139v91h379v-91h-141v-1253h141v-90h-379zM170 1536l234 328h104l-248 -328h-90z" />
<glyph unicode="&#xce;" horiz-adv-x="462" d="M43 0v90h139v1253h-139v91h379v-91h-141v-1253h141v-90h-379zM-10 1536l221 336h45l219 -336h-86l-157 239l-160 -239h-82z" />
<glyph unicode="&#xcf;" horiz-adv-x="462" d="M43 0v90h139v1253h-139v91h379v-91h-141v-1253h141v-90h-379zM-8 1607.5q0 32.5 23 51.5q20 18 47 18q29 0 53 -20q23 -18 22.5 -49t-21 -51.5t-52.5 -20.5q-25 0 -49 20q-23 19 -23 51.5zM326 1607.5q0 32.5 22.5 51t47 18.5t51.5 -20q25 -18 24 -49q0 -29 -22 -52 q-20 -20 -52 -20q-25 0 -49 20q-22 19 -22 51.5z" />
<glyph unicode="&#xd0;" horiz-adv-x="1378" d="M35 668v88h149v678h359q362 0 544 -177q184 -178 185 -520q0 -334 -201 -534q-203 -203 -549 -203h-338v668h-149zM283 90h225q317 0 489 166t172 477q0 610 -641 610h-245v-587h403v-88h-403v-578z" />
<glyph unicode="&#xd1;" horiz-adv-x="1449" d="M184 0v1434h76l848 -1149q28 -37 61 -92h5q-4 47 -5 120v1121h99v-1434h-70l-854 1159q-6 8 -45 70l-14 20h-4q2 -16 2 -63v-1186h-99zM477 1532q0 100 47 160q49 61 129 61q70 0 160 -72q70 -59 117 -59q40 0 67 37q29 39 29 108h74q0 -104 -47.5 -163.5t-131.5 -59.5 q-68 0 -151 76q-63 55 -119 55q-102 0 -102 -143h-72z" />
<glyph unicode="&#xd2;" horiz-adv-x="1558" d="M109 702q0 340 186 549q184 207 506 207q291 0 469 -198q180 -203 180 -521q0 -358 -184.5 -561t-491.5 -203q-305 0 -485 200.5t-180 526.5zM211 713q0 -295 153.5 -471t407.5 -176q266 0 422 174q154 172 154 483q0 301 -152 475q-150 170 -412 170q-250 0 -411.5 -180 t-161.5 -475zM619 1862h104l234 -328h-90z" />
<glyph unicode="&#xd3;" horiz-adv-x="1558" d="M109 702q0 340 186 549q184 207 506 207q291 0 469 -198q180 -203 180 -521q0 -358 -184.5 -561t-491.5 -203q-305 0 -485 200.5t-180 526.5zM211 713q0 -295 153.5 -471t407.5 -176q266 0 422 174q154 172 154 483q0 301 -152 475q-150 170 -412 170q-250 0 -411.5 -180 t-161.5 -475zM641 1536l234 328h104l-248 -328h-90z" />
<glyph unicode="&#xd4;" horiz-adv-x="1558" d="M109 702q0 340 186 549q184 207 506 207q291 0 469 -198q180 -203 180 -521q0 -358 -184.5 -561t-491.5 -203q-305 0 -485 200.5t-180 526.5zM211 713q0 -295 153.5 -471t407.5 -176q266 0 422 174q154 172 154 483q0 301 -152 475q-150 170 -412 170q-250 0 -411.5 -180 t-161.5 -475zM537 1536l221 336h45l219 -336h-86l-157 239l-160 -239h-82z" />
<glyph unicode="&#xd5;" horiz-adv-x="1558" d="M109 702q0 340 186 549q184 207 506 207q291 0 469 -198q180 -203 180 -521q0 -358 -184.5 -561t-491.5 -203q-305 0 -485 200.5t-180 526.5zM211 713q0 -295 153.5 -471t407.5 -176q266 0 422 174q154 172 154 483q0 301 -152 475q-150 170 -412 170q-250 0 -411.5 -180 t-161.5 -475zM467 1532q0 100 47 160q49 61 129 61q70 0 160 -72q70 -59 117 -59q40 0 67 37q29 39 29 108h74q0 -104 -47.5 -163.5t-131.5 -59.5q-68 0 -151 76q-63 55 -119 55q-102 0 -102 -143h-72z" />
<glyph unicode="&#xd6;" horiz-adv-x="1558" d="M109 702q0 340 186 549q184 207 506 207q291 0 469 -198q180 -203 180 -521q0 -358 -184.5 -561t-491.5 -203q-305 0 -485 200.5t-180 526.5zM211 713q0 -295 153.5 -471t407.5 -176q266 0 422 174q154 172 154 483q0 301 -152 475q-150 170 -412 170q-250 0 -411.5 -180 t-161.5 -475zM545 1603.5q0 32.5 23 51.5q20 18 47 18q29 0 53 -20q23 -18 22.5 -49t-21 -51.5t-52.5 -20.5q-25 0 -49 20q-23 19 -23 51.5zM879 1603.5q0 32.5 22.5 51t47 18.5t51.5 -20q25 -18 24 -49q0 -29 -22 -52q-20 -20 -52 -20q-25 0 -49 20q-22 19 -22 51.5z" />
<glyph unicode="&#xd7;" horiz-adv-x="1329" d="M272 262l334 334l-334 336l60 59l334 -336l333 336l60 -59l-334 -336l334 -334l-60 -59l-333 336l-334 -336z" />
<glyph unicode="&#xd8;" horiz-adv-x="1558" d="M84 -4l178 213q-154 201 -153 493q0 340 186 549q184 207 506 207q238 0 399 -131l139 166l64 -53l-141 -168q188 -201 188 -533q0 -358 -184.5 -561t-491.5 -203q-272 0 -457 172l-170 -202zM211 713q0 -258 117 -426l811 966q-145 115 -355 115q-250 0 -411.5 -180 t-161.5 -475zM381 223q154 -158 391 -157q266 0 422 174q154 172 154 483q0 299 -150 473z" />
<glyph unicode="&#xd9;" horiz-adv-x="1325" d="M166 551v883h98v-869q0 -500 406 -499q393 0 393 485v883h98v-861q0 -598 -510 -598q-485 1 -485 576zM434 1864h104l234 -328h-90z" />
<glyph unicode="&#xda;" horiz-adv-x="1325" d="M166 551v883h98v-869q0 -500 406 -499q393 0 393 485v883h98v-861q0 -598 -510 -598q-485 1 -485 576zM573 1534l234 328h104l-248 -328h-90z" />
<glyph unicode="&#xdb;" horiz-adv-x="1325" d="M166 551v883h98v-869q0 -500 406 -499q393 0 393 485v883h98v-861q0 -598 -510 -598q-485 1 -485 576zM461 1536l221 336h45l219 -336h-86l-157 239l-160 -239h-82z" />
<glyph unicode="&#xdc;" horiz-adv-x="1325" d="M166 551v883h98v-869q0 -500 406 -499q393 0 393 485v883h98v-861q0 -598 -510 -598q-485 1 -485 576zM455 1607.5q0 32.5 23 51.5q20 18 47 18q29 0 53 -20q23 -18 22.5 -49t-21 -51.5t-52.5 -20.5q-25 0 -49 20q-23 19 -23 51.5zM789 1607.5q0 32.5 22.5 51t47 18.5 t51.5 -20q25 -18 24 -49q0 -29 -22 -52q-20 -20 -52 -20q-25 0 -49 20q-22 19 -22 51.5z" />
<glyph unicode="&#xdd;" horiz-adv-x="1105" d="M61 1434h111l334 -691q16 -31 45 -106h4q15 37 49 104l350 693h107l-463 -889v-545h-98v543zM442 1567l234 328h104l-248 -328h-90z" />
<glyph unicode="&#xde;" horiz-adv-x="1112" d="M184 0v1434h99v-238h247q455 0 455 -403q0 -203 -133 -330q-131 -125 -367 -125h-202v-338h-99zM283 428h204q193 0 293 92q102 92 103 260q0 326 -371 326h-229v-678z" />
<glyph unicode="&#xdf;" horiz-adv-x="1060" d="M164 2v1114q0 197 100 305q101 111 271 111q147 0 239 -92t92 -242q0 -264 -256 -375v-4q168 -45 266.5 -161.5t98.5 -270.5q0 -178 -110.5 -295t-289.5 -117q-68 0 -145 19v94q76 -29 141 -29q141 0 224 88q84 90 84 234q0 156 -108.5 258t-307.5 133v80q307 71 307 332 q0 121 -65.5 192.5t-178.5 71.5q-129 0 -198 -90q-72 -94 -72 -256v-1100h-92z" />
<glyph unicode="&#xe0;" horiz-adv-x="1011" d="M106 264q0 268 355 324l315 47q0 330 -248 330q-170 0 -329 -136v111q61 49 155 78q98 31 183 31q160 0 245.5 -98.5t85.5 -284.5v-666h-92v205h-4q-49 -104 -143 -168q-92 -61 -207 -62q-147 0 -231.5 82t-84.5 207zM203 268q0 -92 61 -149q63 -59 168 -60 q150 0 246 109q98 111 98 283v100l-282 -41q-162 -23 -226 -74q-65 -53 -65 -168zM271 1516h104l234 -328h-90z" />
<glyph unicode="&#xe1;" horiz-adv-x="1011" d="M106 264q0 268 355 324l315 47q0 330 -248 330q-170 0 -329 -136v111q61 49 155 78q98 31 183 31q160 0 245.5 -98.5t85.5 -284.5v-666h-92v205h-4q-49 -104 -143 -168q-92 -61 -207 -62q-147 0 -231.5 82t-84.5 207zM203 268q0 -92 61 -149q63 -59 168 -60 q150 0 246 109q98 111 98 283v100l-282 -41q-162 -23 -226 -74q-65 -53 -65 -168zM362 1188l234 328h104l-248 -328h-90z" />
<glyph unicode="&#xe2;" horiz-adv-x="1011" d="M106 264q0 268 355 324l315 47q0 330 -248 330q-170 0 -329 -136v111q61 49 155 78q98 31 183 31q160 0 245.5 -98.5t85.5 -284.5v-666h-92v205h-4q-49 -104 -143 -168q-92 -61 -207 -62q-147 0 -231.5 82t-84.5 207zM203 268q0 -92 61 -149q63 -59 168 -60 q150 0 246 109q98 111 98 283v100l-282 -41q-162 -23 -226 -74q-65 -53 -65 -168zM270 1188l221 336h45l219 -336h-86l-157 239l-160 -239h-82z" />
<glyph unicode="&#xe3;" horiz-adv-x="1011" d="M106 264q0 268 355 324l315 47q0 330 -248 330q-170 0 -329 -136v111q61 49 155 78q98 31 183 31q160 0 245.5 -98.5t85.5 -284.5v-666h-92v205h-4q-49 -104 -143 -168q-92 -61 -207 -62q-147 0 -231.5 82t-84.5 207zM203 268q0 -92 61 -149q63 -59 168 -60 q150 0 246 109q98 111 98 283v100l-282 -41q-162 -23 -226 -74q-65 -53 -65 -168zM201 1188q0 100 47 160q49 61 129 61q70 0 160 -72q70 -59 117 -59q40 0 67 37q29 39 29 108h74q0 -104 -47.5 -163.5t-131.5 -59.5q-68 0 -151 76q-63 55 -119 55q-102 0 -102 -143h-72z " />
<glyph unicode="&#xe4;" horiz-adv-x="1011" d="M106 264q0 268 355 324l315 47q0 330 -248 330q-170 0 -329 -136v111q61 49 155 78q98 31 183 31q160 0 245.5 -98.5t85.5 -284.5v-666h-92v205h-4q-49 -104 -143 -168q-92 -61 -207 -62q-147 0 -231.5 82t-84.5 207zM203 268q0 -92 61 -149q63 -59 168 -60 q150 0 246 109q98 111 98 283v100l-282 -41q-162 -23 -226 -74q-65 -53 -65 -168zM260 1259.5q0 32.5 23 51.5q20 18 47 18q29 0 53 -20q23 -18 22.5 -49t-21 -51.5t-52.5 -20.5q-25 0 -49 20q-23 19 -23 51.5zM594 1259.5q0 32.5 22.5 51t47 18.5t51.5 -20q25 -18 24 -49 q0 -29 -22 -52q-20 -20 -52 -20q-25 0 -49 20q-22 19 -22 51.5z" />
<glyph unicode="&#xe5;" horiz-adv-x="1011" d="M106 264q0 268 355 324l315 47q0 330 -248 330q-170 0 -329 -136v111q61 49 155 78q98 31 183 31q160 0 245.5 -98.5t85.5 -284.5v-666h-92v205h-4q-49 -104 -143 -168q-92 -61 -207 -62q-147 0 -231.5 82t-84.5 207zM203 268q0 -92 61 -149q63 -59 168 -60 q150 0 246 109q98 111 98 283v100l-282 -41q-162 -23 -226 -74q-65 -53 -65 -168zM520 1188q-82 0 -143 51q-57 49 -58 133q0 80 58 131q59 53 143 53q88 0 145 -51q55 -49 56 -133q0 -82 -57.5 -133t-143.5 -51zM520 1489q-55 0 -92 -33q-35 -31 -35 -84q0 -55 37 -86 t90 -31q57 0 92 33q37 35 37 84q0 55 -37 86t-92 31z" />
<glyph unicode="&#xe6;" horiz-adv-x="1716" d="M106 264q0 141 99 225q96 80 287 91l284 12q0 373 -239 373q-190 0 -338 -134v109q162 109 348 109q231 0 295 -254h4q125 254 383 254q188 0 292.5 -133.5t104.5 -366.5v-41h-758q0 -213 97 -330q98 -119 268 -119q172 0 336 127v-98q-158 -113 -355 -113 q-135 0 -239.5 74t-151.5 211h-4q-131 -285 -391 -285q-150 0 -236 80t-86 209zM203 268q0 -98 63 -153q65 -55 172 -56q137 0 237.5 106.5t100.5 260.5v82l-264 -8q-158 -6 -233.5 -57.5t-75.5 -174.5zM872 592h658q-6 178 -84 274q-80 98 -219 99q-141 0 -238 -97 q-95 -95 -117 -276z" />
<glyph unicode="&#xe7;" horiz-adv-x="907" d="M90 494q0 244 143.5 399.5t370.5 155.5q121 0 227 -48v-104q-111 68 -241 68q-180 0 -291 -129q-113 -131 -113 -336q0 -199 102.5 -320t270.5 -121q156 0 268 82v-96q-113 -70 -272 -70q-209 0 -338 144q-127 142 -127 375zM403 -356q49 -6 86 -6q160 0 160 92 q0 86 -145 86q-23 0 -64 -4v188h72v-117q225 0 225 -147q0 -170 -254 -170q-23 0 -80 4v74z" />
<glyph unicode="&#xe8;" horiz-adv-x="1032" d="M90 518q0 225 127 377q129 154 332 154q193 0 293 -134q102 -137 102 -366v-41h-758q0 -213 97 -330q98 -119 268 -119q172 0 336 127v-98q-158 -113 -354.5 -113t-319.5 141.5t-123 401.5zM190 592h658q-6 178 -84 274q-80 98 -219 99q-141 0 -238 -97 q-95 -95 -117 -276zM322 1516h104l234 -328h-90z" />
<glyph unicode="&#xe9;" horiz-adv-x="1032" d="M90 518q0 225 127 377q129 154 332 154q193 0 293 -134q102 -137 102 -366v-41h-758q0 -213 97 -330q98 -119 268 -119q172 0 336 127v-98q-158 -113 -354.5 -113t-319.5 141.5t-123 401.5zM190 592h658q-6 178 -84 274q-80 98 -219 99q-141 0 -238 -97 q-95 -95 -117 -276zM399 1188l234 328h104l-248 -328h-90z" />
<glyph unicode="&#xea;" horiz-adv-x="1032" d="M90 518q0 225 127 377q129 154 332 154q193 0 293 -134q102 -137 102 -366v-41h-758q0 -213 97 -330q98 -119 268 -119q172 0 336 127v-98q-158 -113 -354.5 -113t-319.5 141.5t-123 401.5zM190 592h658q-6 178 -84 274q-80 98 -219 99q-141 0 -238 -97 q-95 -95 -117 -276zM305 1188l221 336h45l219 -336h-86l-157 239l-160 -239h-82z" />
<glyph unicode="&#xeb;" horiz-adv-x="1032" d="M90 518q0 225 127 377q129 154 332 154q193 0 293 -134q102 -137 102 -366v-41h-758q0 -213 97 -330q98 -119 268 -119q172 0 336 127v-98q-158 -113 -354.5 -113t-319.5 141.5t-123 401.5zM190 592h658q-6 178 -84 274q-80 98 -219 99q-141 0 -238 -97 q-95 -95 -117 -276zM297 1259.5q0 32.5 23 51.5q20 18 47 18q29 0 53 -20q23 -18 22.5 -49t-21 -51.5t-52.5 -20.5q-25 0 -49 20q-23 19 -23 51.5zM631 1259.5q0 32.5 22.5 51t47 18.5t51.5 -20q25 -18 24 -49q0 -29 -22 -52q-20 -20 -52 -20q-25 0 -49 20q-22 19 -22 51.5z " />
<glyph unicode="&#xec;" horiz-adv-x="419" d="M164 0v1024h92v-1024h-92zM6 1516h104l234 -328h-90z" />
<glyph unicode="&#xed;" horiz-adv-x="419" d="M164 0v1024h92v-1024h-92zM84 1188l234 328h104l-248 -328h-90z" />
<glyph unicode="&#xee;" horiz-adv-x="419" d="M164 0v1024h92v-1024h-92zM-31 1188l221 336h45l219 -336h-86l-157 239l-160 -239h-82z" />
<glyph unicode="&#xef;" horiz-adv-x="419" d="M164 0v1024h92v-1024h-92zM-29 1259.5q0 32.5 23 51.5q20 18 47 18q29 0 53 -20q23 -18 22.5 -49t-21 -51.5t-52.5 -20.5q-25 0 -49 20q-23 19 -23 51.5zM305 1259.5q0 32.5 22.5 51t47 18.5t51.5 -20q25 -18 24 -49q0 -29 -22 -52q-20 -20 -52 -20q-25 0 -49 20 q-22 19 -22 51.5z" />
<glyph unicode="&#xf0;" horiz-adv-x="1089" d="M90 506q0 240 129 391.5t338 151.5q145 0 244 -93l4 5q-98 176 -219 296l-299 -149l-35 70l276 133q-139 127 -252 202h150q94 -70 186 -155l301 149l35 -71l-280 -136q168 -174 247 -376q84 -211 84 -414q0 -233 -120 -385q-119 -150 -332 -150q-219 0 -338 143.5 t-119 387.5zM186 504q0 -205 97 -326q94 -119 266 -119q164 0 258 121q96 125 96 332q0 453 -346 453q-166 0 -268.5 -127t-102.5 -334z" />
<glyph unicode="&#xf1;" horiz-adv-x="1095" d="M164 0v1024h92v-186h4q111 211 350 211q164 0 254 -111q88 -109 88 -315v-623h-92v596q0 369 -266 369q-147 0 -244 -109q-94 -106 -94 -268v-588h-92zM272 1188q0 100 47 160q49 61 129 61q70 0 160 -72q70 -59 117 -59q40 0 67 37q29 39 29 108h74q0 -104 -47.5 -163.5 t-131.5 -59.5q-68 0 -151 76q-63 55 -119 55q-102 0 -102 -143h-72z" />
<glyph unicode="&#xf2;" horiz-adv-x="1148" d="M90 506q0 252 137 399q135 143 359 144q221 0 346 -144q127 -145 127 -395q0 -240 -129 -387.5t-354.5 -147.5t-354.5 148q-131 150 -131 383zM186 504q0 -201 105 -324q102 -121 286.5 -121t285 119t100.5 334q0 219 -98.5 336t-282.5 117q-182 0 -289 -121t-107 -340z M344 1516h104l234 -328h-90z" />
<glyph unicode="&#xf3;" horiz-adv-x="1148" d="M90 506q0 252 137 399q135 143 359 144q221 0 346 -144q127 -145 127 -395q0 -240 -129 -387.5t-354.5 -147.5t-354.5 148q-131 150 -131 383zM186 504q0 -201 105 -324q102 -121 286.5 -121t285 119t100.5 334q0 219 -98.5 336t-282.5 117q-182 0 -289 -121t-107 -340z M450 1188l234 328h104l-248 -328h-90z" />
<glyph unicode="&#xf4;" horiz-adv-x="1148" d="M90 506q0 252 137 399q135 143 359 144q221 0 346 -144q127 -145 127 -395q0 -240 -129 -387.5t-354.5 -147.5t-354.5 148q-131 150 -131 383zM186 504q0 -201 105 -324q102 -121 286.5 -121t285 119t100.5 334q0 219 -98.5 336t-282.5 117q-182 0 -289 -121t-107 -340z M348 1188l221 336h45l219 -336h-86l-157 239l-160 -239h-82z" />
<glyph unicode="&#xf5;" horiz-adv-x="1148" d="M90 506q0 252 137 399q135 143 359 144q221 0 346 -144q127 -145 127 -395q0 -240 -129 -387.5t-354.5 -147.5t-354.5 148q-131 150 -131 383zM186 504q0 -201 105 -324q102 -121 286.5 -121t285 119t100.5 334q0 219 -98.5 336t-282.5 117q-182 0 -289 -121t-107 -340z M289 1188q0 100 47 160q49 61 129 61q70 0 160 -72q70 -59 117 -59q40 0 67 37q29 39 29 108h74q0 -104 -47.5 -163.5t-131.5 -59.5q-68 0 -151 76q-63 55 -119 55q-102 0 -102 -143h-72z" />
<glyph unicode="&#xf6;" horiz-adv-x="1148" d="M90 506q0 252 137 399q135 143 359 144q221 0 346 -144q127 -145 127 -395q0 -240 -129 -387.5t-354.5 -147.5t-354.5 148q-131 150 -131 383zM186 504q0 -201 105 -324q102 -121 286.5 -121t285 119t100.5 334q0 219 -98.5 336t-282.5 117q-182 0 -289 -121t-107 -340z M344 1259.5q0 32.5 23 51.5q20 18 47 18q29 0 53 -20q23 -18 22.5 -49t-21 -51.5t-52.5 -20.5q-25 0 -49 20q-23 19 -23 51.5zM678 1259.5q0 32.5 22.5 51t47 18.5t51.5 -20q25 -18 24 -49q0 -29 -22 -52q-20 -20 -52 -20q-25 0 -49 20q-22 19 -22 51.5z" />
<glyph unicode="&#xf7;" horiz-adv-x="1329" d="M213 555v84h907v-84h-907zM590 252q0 31 22.5 53.5t55.5 22.5q31 0 53 -22.5t22 -53.5q0 -33 -22.5 -55.5t-52.5 -22.5q-33 0 -55.5 22.5t-22.5 55.5zM590 944q0 31 22.5 53.5t55.5 22.5q31 0 53 -22.5t22 -53.5q0 -33 -22.5 -55.5t-52.5 -22.5q-33 0 -55.5 22.5 t-22.5 55.5z" />
<glyph unicode="&#xf8;" horiz-adv-x="1148" d="M29 -39l170 189q-109 150 -109 356q0 252 137 399q135 143 359 144q197 0 321 -115l172 190l62 -55l-180 -199q98 -141 98 -360q0 -240 -129 -387.5t-355 -147.5q-195 0 -319 113l-166 -184zM186 504q0 -170 76 -285l584 647q-98 98 -264 99q-182 0 -289 -121t-107 -340z M315 156q102 -96 263 -97q184 0 284.5 119t100.5 334q0 168 -66 287z" />
<glyph unicode="&#xf9;" horiz-adv-x="1095" d="M143 432v592h93v-569q0 -203 69 -301q68 -94 215 -95q143 0 232 105q88 102 88 280v580h92v-1024h-92v186h-4q-106 -211 -330 -211q-363 0 -363 457zM309 1516h104l234 -328h-90z" />
<glyph unicode="&#xfa;" horiz-adv-x="1095" d="M143 432v592h93v-569q0 -203 69 -301q68 -94 215 -95q143 0 232 105q88 102 88 280v580h92v-1024h-92v186h-4q-106 -211 -330 -211q-363 0 -363 457zM452 1188l234 328h104l-248 -328h-90z" />
<glyph unicode="&#xfb;" horiz-adv-x="1095" d="M143 432v592h93v-569q0 -203 69 -301q68 -94 215 -95q143 0 232 105q88 102 88 280v580h92v-1024h-92v186h-4q-106 -211 -330 -211q-363 0 -363 457zM328 1188l221 336h45l219 -336h-86l-157 239l-160 -239h-82z" />
<glyph unicode="&#xfc;" horiz-adv-x="1095" d="M143 432v592h93v-569q0 -203 69 -301q68 -94 215 -95q143 0 232 105q88 102 88 280v580h92v-1024h-92v186h-4q-106 -211 -330 -211q-363 0 -363 457zM330 1259.5q0 32.5 23 51.5q20 18 47 18q29 0 53 -20q23 -18 22.5 -49t-21 -51.5t-52.5 -20.5q-25 0 -49 20 q-23 19 -23 51.5zM664 1259.5q0 32.5 22.5 51t47 18.5t51.5 -20q25 -18 24 -49q0 -29 -22 -52q-20 -20 -52 -20q-25 0 -49 20q-22 19 -22 51.5z" />
<glyph unicode="&#xfd;" horiz-adv-x="927" d="M20 1024h103l309 -834l7 -20l7 -20q4 -25 9 -35h4l24 69l330 840h100l-499 -1233q-55 -137 -123 -204.5t-176 -67.5q-49 0 -80 14v92q35 -14 84 -14q123 0 194 170l95 227zM358 1188l234 328h104l-248 -328h-90z" />
<glyph unicode="&#xfe;" horiz-adv-x="1146" d="M164 -471v1987h92v-703h4q53 111 158 174q102 61 225 62q197 0 305.5 -133.5t108.5 -366.5q0 -258 -125 -416t-332 -158q-229 0 -340 207h-4v-653h-92zM256 434q0 -156 96 -264q98 -111 256 -111t254 134q98 135 99 354q0 190 -91 305q-88 113 -239 113q-178 0 -277 -119 q-98 -120 -98 -283v-129z" />
<glyph unicode="&#xff;" horiz-adv-x="927" d="M20 1024h103l309 -834l7 -20l7 -20q4 -25 9 -35h4l24 69l330 840h100l-499 -1233q-55 -137 -123 -204.5t-176 -67.5q-49 0 -80 14v92q35 -14 84 -14q123 0 194 170l95 227zM231 1259.5q0 32.5 23 51.5q20 18 47 18q29 0 53 -20q23 -18 22.5 -49t-21 -51.5t-52.5 -20.5 q-25 0 -49 20q-23 19 -23 51.5zM565 1259.5q0 32.5 22.5 51t47 18.5t51.5 -20q25 -18 24 -49q0 -29 -22 -52q-20 -20 -52 -20q-25 0 -49 20q-22 19 -22 51.5z" />
<glyph unicode="&#x131;" horiz-adv-x="419" d="M164 0v1024h92v-1024h-92z" />
<glyph unicode="&#x152;" horiz-adv-x="1933" d="M109 702q0 342 188 549t514 207q139 0 266 -24h670v-91h-571v-575h530v-90h-530v-588h604v-90h-703q-175 -25 -282 -25q-324 0 -506 203q-180 200 -180 524zM211 712.5q0 -288.5 151 -468.5q150 -178 431 -178q141 0 284 30v1245q-125 27 -272 27q-276 0 -434 -182 q-160 -185 -160 -473.5z" />
<glyph unicode="&#x153;" horiz-adv-x="1884" d="M90 506q0 262 137 401q137 141 359 142q158 0 268 -80q113 -82 156 -217h4q113 297 407 297q190 0 291 -131q102 -133 103 -369v-41h-758q0 -209 96 -330q94 -119 268 -119q172 0 336 127v-98q-156 -113 -350 -113q-295 0 -395 297h-4q-117 -297 -433 -297 q-227 0 -356 150t-129 381zM186 504q0 -201 105 -324q102 -121 286.5 -121t285 119t100.5 334q0 219 -98.5 336t-282.5 117q-182 0 -289 -121t-107 -340zM1061 592h657q-6 176 -86 274.5t-217 98.5q-144 0 -239 -99q-97 -100 -115 -274z" />
<glyph unicode="&#x178;" horiz-adv-x="1105" d="M61 1434h111l334 -691q16 -31 45 -106h4q15 37 49 104l350 693h107l-463 -889v-545h-98v543zM311 1605.5q0 32.5 23 51.5q20 18 47 18q29 0 53 -20q23 -18 22.5 -49t-21 -51.5t-52.5 -20.5q-25 0 -49 20q-23 19 -23 51.5zM645 1605.5q0 32.5 22.5 51t47 18.5t51.5 -20 q25 -18 24 -49q0 -29 -22 -52q-20 -20 -52 -20q-25 0 -49 20q-22 19 -22 51.5z" />
<glyph unicode="&#x2c6;" horiz-adv-x="765" d="M129 1188l221 336h45l219 -336h-86l-157 239l-160 -239h-82z" />
<glyph unicode="&#x2da;" horiz-adv-x="593" d="M297 1188q-82 0 -143 51q-57 49 -58 133q0 80 58 131q59 53 143 53q88 0 145 -51q55 -49 56 -133q0 -82 -57.5 -133t-143.5 -51zM297 1489q-55 0 -92 -33q-35 -31 -35 -84q0 -55 37 -86t90 -31q57 0 92 33q37 35 37 84q0 55 -37 86t-92 31z" />
<glyph unicode="&#x2dc;" horiz-adv-x="647" d="M41 1188q0 100 47 160q49 61 129 61q70 0 160 -72q70 -59 117 -59q40 0 67 37q29 39 29 108h74q0 -104 -47.5 -163.5t-131.5 -59.5q-68 0 -151 76q-63 55 -119 55q-102 0 -102 -143h-72z" />
<glyph unicode="&#x2000;" horiz-adv-x="946" />
<glyph unicode="&#x2001;" horiz-adv-x="1894" />
<glyph unicode="&#x2002;" horiz-adv-x="946" />
<glyph unicode="&#x2003;" horiz-adv-x="1894" />
<glyph unicode="&#x2004;" horiz-adv-x="630" />
<glyph unicode="&#x2005;" horiz-adv-x="471" />
<glyph unicode="&#x2006;" horiz-adv-x="313" />
<glyph unicode="&#x2007;" horiz-adv-x="313" />
<glyph unicode="&#x2008;" horiz-adv-x="235" />
<glyph unicode="&#x2009;" horiz-adv-x="378" />
<glyph unicode="&#x200a;" horiz-adv-x="104" />
<glyph unicode="&#x2010;" horiz-adv-x="813" d="M145 555v90h547v-90h-547z" />
<glyph unicode="&#x2011;" horiz-adv-x="813" d="M145 555v90h547v-90h-547z" />
<glyph unicode="&#x2012;" horiz-adv-x="813" d="M145 555v90h547v-90h-547z" />
<glyph unicode="&#x2013;" horiz-adv-x="1024" d="M0 555v90h1024v-90h-1024z" />
<glyph unicode="&#x2014;" horiz-adv-x="2048" d="M0 555v90h2048v-90h-2048z" />
<glyph unicode="&#x2018;" horiz-adv-x="436" d="M113 985l153 449h76l-123 -449h-106z" />
<glyph unicode="&#x2019;" horiz-adv-x="436" d="M113 985l125 449h104l-156 -449h-73z" />
<glyph unicode="&#x201a;" horiz-adv-x="436" d="M78 -225l125 444h104l-155 -444h-74z" />
<glyph unicode="&#x201c;" horiz-adv-x="684" d="M113 985l153 449h76l-123 -449h-106zM360 985l156 449h74l-125 -449h-105z" />
<glyph unicode="&#x201d;" horiz-adv-x="684" d="M113 985l125 449h104l-156 -449h-73zM360 985l123 449h107l-154 -449h-76z" />
<glyph unicode="&#x201e;" horiz-adv-x="684" d="M78 -229l125 448h104l-155 -448h-74zM326 -229l123 448h106l-154 -448h-75z" />
<glyph unicode="&#x2022;" horiz-adv-x="808" d="M164 713q0 98 71.5 169.5t172.5 71.5q98 0 170 -71q70 -70 69 -170q0 -98 -69 -166q-74 -70 -170 -70q-102 0 -172 70q-72 72 -72 166z" />
<glyph unicode="&#x2026;" horiz-adv-x="1363" d="M141 66q0 35 22.5 57t57.5 22q31 0 58 -22q25 -20 24 -57q0 -33 -24.5 -57.5t-57.5 -24.5q-37 0 -57 24q-23 27 -23 58zM598 66q0 35 22.5 57t57.5 22q31 0 57 -22q25 -20 25 -57q0 -33 -24.5 -57.5t-57.5 -24.5q-35 0 -57 24q-23 27 -23 58zM1059 66q0 35 22.5 57 t57.5 22q31 0 57 -22q25 -20 25 -57q0 -33 -25 -57.5t-57 -24.5q-37 0 -58 24q-22 27 -22 58z" />
<glyph unicode="&#x202f;" horiz-adv-x="378" />
<glyph unicode="&#x2039;" horiz-adv-x="634" d="M123 537l278 344h113l-283 -344l281 -336h-111z" />
<glyph unicode="&#x203a;" horiz-adv-x="634" d="M123 201l285 344l-283 336h113l276 -336l-276 -344h-115z" />
<glyph unicode="&#x205f;" horiz-adv-x="471" />
<glyph unicode="&#x20ac;" d="M78 500v84h137q-4 66 -4 102q0 71 6 135h-139v84h149q43 262 178.5 407.5t323.5 145.5q123 0 234 -53v-102q-119 72 -242 71q-147 0 -254 -119q-109 -121 -145 -350h542v-84h-553q-4 -45 -4 -123q0 -41 4 -114h553v-84h-542q35 -219 135 -330t243 -111q123 0 263 93v-99 q-131 -78 -275 -78q-176 0 -303 136q-125 133 -162 389h-145z" />
<glyph unicode="&#x2122;" horiz-adv-x="1583" d="M70 1356v78h526v-78h-223v-584h-82v584h-221zM692 772v662h115l223 -545h4l234 545h108v-662h-82v533h-4l-227 -533h-68l-217 533h-4v-533h-82z" />
<glyph unicode="&#xe000;" horiz-adv-x="1025" d="M0 1025h1025v-1025h-1025v1025z" />
<glyph unicode="&#xfb01;" horiz-adv-x="983" d="M35 940v84h184v178q0 164 82 246q84 84 203 84q66 0 108 -19v-94q-39 29 -112 29q-188 0 -189 -254v-170h271v-84h-271v-940h-92v940h-184zM698 1360q0 33 22.5 53.5t53.5 20.5q33 0 55.5 -20.5t22.5 -53.5t-22.5 -55.5t-55.5 -22.5q-31 0 -53.5 22.5t-22.5 55.5zM729 0 v1024h92v-1024h-92z" />
<glyph unicode="&#xfb02;" horiz-adv-x="983" d="M35 940v84h184v178q0 164 82 246q84 84 203 84q66 0 108 -19v-94q-39 29 -112 29q-188 0 -189 -254v-170h271v-84h-271v-940h-92v940h-184zM729 0v1516h92v-1516h-92z" />
<glyph unicode="&#xfb03;" horiz-adv-x="1548" d="M1263 1360q0 33 22.5 53.5t53.5 20.5q33 0 55.5 -20.5t22.5 -53.5t-22.5 -55.5t-55.5 -22.5q-31 0 -53.5 22.5t-22.5 55.5zM1294 0v1024h92v-1024h-92zM600 940v84h184v178q0 164 82 246q84 84 203 84q66 0 108 -19v-94q-39 29 -112 29q-188 0 -189 -254v-170h271v-84 h-271v-940h-92v940h-184zM35 940v84h184v178q0 164 82 246q84 84 203 84q66 0 108 -19v-94q-39 29 -112 29q-188 0 -189 -254v-170h271v-84h-271v-940h-92v940h-184z" />
<glyph unicode="&#xfb04;" horiz-adv-x="1548" d="M1294 0v1516h92v-1516h-92zM600 940v84h184v178q0 164 82 246q84 84 203 84q66 0 108 -19v-94q-39 29 -112 29q-188 0 -189 -254v-170h271v-84h-271v-940h-92v940h-184zM35 940v84h184v178q0 164 82 246q84 84 203 84q66 0 108 -19v-94q-39 29 -112 29q-188 0 -189 -254 v-170h271v-84h-271v-940h-92v940h-184z" />
<glyph horiz-adv-x="673" d="M600 584h-471v82h195v682l-209 -70v88l295 94v-794h190v-82z" />
<glyph horiz-adv-x="673" d="M596 584h-518v100l239 234q45 43 97 102q41 47 57 78q18 34 25 61q6 29 6 60q0 154 -158 153q-111 0 -221 -98v102q49 33 113 58q53 20 114 20q53 0 103 -16q47 -16 75 -45q31 -31 50 -70q16 -35 16 -92q0 -37 -10.5 -78t-33 -80t-67.5 -94q-29 -35 -108 -115l-193 -186 v-4h414v-90z" />
<glyph horiz-adv-x="673" d="M561 811q0 -53 -18 -100q-18 -46 -56 -80q-39 -37 -88 -53q-51 -18 -118 -19q-104 0 -193 47v96q100 -63 195 -63q90 0 141 47t51 125q0 168 -235 168h-70v80h61q215 0 215 172q0 137 -153 137q-70 0 -172 -53v90q53 23 96 35q39 10 94 10q53 0 94 -14.5t70 -42.5 q31 -31 45.5 -66t14.5 -84q0 -163 -148 -215v-4q86 -18 129 -78q45 -61 45 -135z" />
</font>
</defs>
</svg>
