<?xml version="1.0" standalone="no"?>
<!DOCTYPE svg PUBLIC "-//W3C//DTD SVG 1.1//EN" "http://www.w3.org/Graphics/SVG/1.1/DTD/svg11.dtd" >
<svg xmlns="http://www.w3.org/2000/svg">
<metadata>
This is a custom SVG webfont generated by Font Squirrel.
Copyright   :  2009 Microsoft Corporation All Rights Reserved
Foundry     : Microsoft Corporation
Foundry URL : httpwwwmicrosoftcomtypographyfonts
</metadata>
<defs>
<font id="webfontw7blt3iK" horiz-adv-x="1136" >
<font-face units-per-em="2048" ascent="1638" descent="-410" />
<missing-glyph horiz-adv-x="561" />
<glyph unicode=" "  horiz-adv-x="561" />
<glyph unicode="&#x09;" horiz-adv-x="561" />
<glyph unicode="&#xa0;" horiz-adv-x="561" />
<glyph unicode="!" horiz-adv-x="620" d="M168 113q0 57 41 96q45 41 102 41q55 0 101 -41q43 -41 43 -96.5t-43 -94.5q-41 -39 -101 -38q-61 0 -102 39t-41 94zM186 1434h236l-19 -1012h-190z" />
<glyph unicode="&#x22;" horiz-adv-x="894" d="M162 1442h213l-31 -447h-151zM522 1442h213l-30 -447h-152z" />
<glyph unicode="#" horiz-adv-x="1210" d="M35 494l26 139h234l53 276h-244l29 140h246l80 385h159l-77 -385h241l82 385h158l-80 -385h227l-30 -140h-228l-57 -276h248l-35 -139h-242l-82 -371h-159l80 371h-242l-78 -371h-160l78 371h-227zM451 633h243l60 276h-244z" />
<glyph unicode="$" d="M143 1049q0 150 107 256q111 111 268 131v180h123v-176q211 -6 291 -56v-215q-106 80 -291 86v-460q221 -101 301 -197q82 -98 82 -217q0 -150 -100 -248q-100 -96 -283 -125v-217h-123v209q-223 0 -360 86v223q63 -53 166 -90q98 -35 194 -35v445q-231 106 -305 200 q-70 91 -70 220zM356 1067q0 -78 35 -121q37 -47 127 -94v399q-78 -16 -119 -63q-43 -49 -43 -121zM641 190q170 37 170 177q0 119 -170 208v-385z" />
<glyph unicode="%" horiz-adv-x="1720" d="M84 1071q0 178 96 280.5t256 102.5q158 0 244 -94q88 -98 88 -266q0 -172 -98 -277q-96 -102 -254 -102q-154 0 -242 96q-90 100 -90 260zM254 1079q0 -109 45 -168t127 -59t129 61q45 59 45 174q0 109 -45 168.5t-125 59.5q-84 0 -129 -64q-47 -66 -47 -172zM324 -10 l919 1444h143l-919 -1444h-143zM926 336q0 178 96 280.5t258 102.5q156 0 242 -94q88 -98 88 -268.5t-98.5 -275t-254.5 -104.5q-152 0 -241 99q-90 100 -90 260zM1096 342q0 -109 45 -168t129 -59q80 0 127 63q45 59 45 172q0 109 -45 168q-45 61 -125 62q-84 0 -129 -64 q-47 -65 -47 -174z" />
<glyph unicode="&#x26;" horiz-adv-x="1683" d="M98 389q0 156 88 262q94 113 248 178q-27 18 -59 52q-31 31 -56 67q-18 29 -36 82q-14 43 -15 100q0 78 31 139.5t84 102.5q55 43 127 64q78 23 160 22q80 0 153 -22q70 -20 119 -62q55 -45 80 -94q27 -53 27 -125q0 -121 -68 -201t-207 -135q78 -29 125 -59 q66 -43 105 -80q45 -41 83 -94q37 -49 74 -105q80 117 115 238q37 129 37 270q0 29 -4 70q-3 31 -13 61h207q8 -31 13 -59q0 -10 2 -27.5t4 -40.5q0 -82 -23 -176q-20 -84 -55 -170q-29 -70 -82 -166q-46 -83 -98 -159l63 -68q29 -29 59 -47q33 -18 64 -29q27 -8 72 -8 q35 0 61 8q41 12 64 21v-187q-35 -16 -84 -26q-39 -8 -84 -9q-66 0 -111 15q-51 16 -88 39q-43 27 -80 63q-51 51 -80 84q-25 -25 -94 -74q-53 -37 -119 -65q-72 -31 -143 -45q-82 -16 -168 -17q-115 0 -203 27q-94 29 -157.5 80t-100.5 129t-37 176zM336 410q0 -57 22 -107 q20 -45 63.5 -77.5t92.5 -47t115 -14.5q74 0 129 14q66 16 108 39q55 27 90 57q43 37 72 68q-63 94 -106 147q-43 55 -99 103q-51 45 -106 76q-49 27 -129 57q-57 -23 -103 -49q-49 -29 -79 -64q-33 -35 -52 -86q-18 -48 -18 -116zM481 1120q0 -33 11 -67q6 -20 30 -58 q12 -18 45 -47q18 -16 56 -37q109 37 162 90.5t53 126.5q0 41 -17 74q-14 31 -39 51q-20 18 -55 29q-27 8 -59 8q-88 0 -136 -45q-51 -47 -51 -125z" />
<glyph unicode="'" horiz-adv-x="528" d="M158 1442h213l-29 -447h-154z" />
<glyph unicode="(" horiz-adv-x="679" d="M147 547q0 520 318 887h197q-311 -383 -311.5 -885t308.5 -875h-194q-318 355 -318 873z" />
<glyph unicode=")" horiz-adv-x="679" d="M20 1434h197q317 -367 318 -887q0 -522 -318 -873h-197q311 377 312 875q-1 502 -312 885z" />
<glyph unicode="*" horiz-adv-x="888" d="M74 1081l55 160l258 -102l-33 295h183l-31 -295l256 102l55 -160l-272 -47l190 -229l-141 -98l-148 260l-147 -260l-143 98l192 229z" />
<glyph unicode="+" horiz-adv-x="1421" d="M236 510v166h395v395h164v-395h395v-166h-395v-395h-164v395h-395z" />
<glyph unicode="," horiz-adv-x="493" d="M39 -260l111 500h219l-156 -500h-174z" />
<glyph unicode="-" horiz-adv-x="821" d="M143 473v172h547v-172h-547z" />
<glyph unicode="." horiz-adv-x="493" d="M102 112.5q0 55.5 43 96.5q41 39 102.5 39t102.5 -39q43 -41 43 -96.5t-43 -94.5q-45 -41 -102.5 -41t-102.5 41q-43 39 -43 94.5z" />
<glyph unicode="/" horiz-adv-x="845" d="M-37 -238l690 1672h213l-692 -1672h-211z" />
<glyph unicode="0" d="M78 688q0 383 131 576q133 195 379 194q473 0 473 -735q0 -360 -135 -555q-133 -193 -373 -193q-224 0 -350 185q-125 182 -125 528zM315 698q0 -539 256 -538q252 0 252 547q0 567 -248 567q-260 -1 -260 -576z" />
<glyph unicode="1" d="M166 1120v203l551 137v-1267h309v-193h-854v193h313v1013z" />
<glyph unicode="2" d="M100 0v190l398 385q156 154 217 246q66 100 65 207q0 117 -67.5 178.5t-192.5 61.5q-182 0 -350 -164v223q176 131 412 131q199 0 317 -102q117 -102 117 -293q0 -123 -74 -252q-72 -125 -276 -324l-295 -282v-6h630v-199h-901z" />
<glyph unicode="3" d="M137 53v217q141 -111 318 -110q139 0 227 65q86 66 86 176q0 244 -373 244h-110v186h104q332 0 332 230q0 213 -258 213q-144 0 -270 -105v207q145 82 344 82q193 0 307 -96t114 -246q0 -285 -288 -364v-4q156 -16 245 -109q90 -94 91 -233q0 -190 -146 -312 q-143 -119 -383 -119q-213 0 -340 78z" />
<glyph unicode="4" d="M25 346v150l622 938h248v-914h178v-174h-178v-346h-217v346h-653zM238 520h440v555q0 35 4 133h-4q-16 -41 -49 -98z" />
<glyph unicode="5" d="M164 33v223q139 -94 287 -94q143 0 233 73.5t90 198.5q0 123 -90 190.5t-260 67.5q-58 0 -215 -12v754h737v-197h-532v-360q86 4 121 4q227 0 352 -117t125 -320q0 -211 -144 -342q-141 -129 -391 -129q-207 1 -313 60z" />
<glyph unicode="6" d="M104 631q0 377 170 602t447 225q152 0 246 -41v-200q-106 57 -226 57q-180 0 -292 -150q-109 -145 -109 -397h2q98 180 322 180q184 0 290 -121q109 -125 109 -325q0 -211 -135 -350q-132 -135 -338 -136q-227 0 -356.5 172.5t-129.5 483.5zM350 471q0 -127 67.5 -219 t178.5 -92q104 0 170 80q63 78 63 200q0 133 -61 211q-59 74 -174 74q-111 0 -176 -74q-68 -78 -68 -180z" />
<glyph unicode="7" d="M90 1237v197h959v-95l-541 -1339h-244l524 1237h-698z" />
<glyph unicode="8" d="M90 350q0 276 301 402v4q-252 121 -252 348q0 156 127 254q129 100 328 100q180 0 297 -92q115 -90 115 -240q0 -240 -267 -370v-4q309 -111 310 -387q0 -178 -136 -283q-137 -106 -376 -107q-194 0 -320 105q-127 104 -127 270zM317 371q0 -94 72 -156q71 -61 184 -61 q111 0 179 59q70 61 69 152q0 190 -262 286q-242 -98 -242 -280zM367 1094q0 -168 204 -250q209 86 209 248q0 88 -55 137q-57 51 -147 51q-86 0 -150 -53q-61 -51 -61 -133z" />
<glyph unicode="9" d="M86 975q0 211 137 348q135 135 346 135q223 0 349 -168q123 -164 122 -487q0 -399 -161 -613q-162 -215 -451 -215q-154 0 -262 52v200q117 -68 246 -67q190 0 294.5 137t104.5 391h-4q-90 -166 -309 -166q-178 0 -295 127q-117 126 -117 326zM317 993q0 -135 66 -209 q68 -76 180 -75q100 0 168 69q70 74 70 170q0 139 -70 234q-68 92 -176 92q-102 0 -170 -80t-68 -201z" />
<glyph unicode=":" horiz-adv-x="493" d="M102 112.5q0 55.5 43 96.5q41 39 102.5 39t102.5 -39q43 -41 43 -96.5t-43 -94.5q-45 -41 -102.5 -41t-102.5 41q-43 39 -43 94.5zM102 903q0 55 43 96q41 39 102.5 39t102.5 -39q43 -41 43 -96t-43 -94q-45 -41 -102.5 -41t-102.5 41q-43 39 -43 94z" />
<glyph unicode=";" horiz-adv-x="493" d="M39 -264l108 504h222l-154 -504h-176zM106 907q0 55 41 97q39 39 101 38q57 0 96 -38q41 -41 41 -96.5t-41 -96.5t-96 -41q-59 0 -100.5 41t-41.5 96z" />
<glyph unicode="&#x3c;" horiz-adv-x="1421" d="M266 526v107l893 467v-191l-653 -323v-4l653 -295v-189z" />
<glyph unicode="=" horiz-adv-x="1421" d="M236 295v164h954v-164h-954zM236 725v164h954v-164h-954z" />
<glyph unicode="&#x3e;" horiz-adv-x="1421" d="M266 104v189l654 291v6l-654 323v191l893 -465v-107z" />
<glyph unicode="?" horiz-adv-x="907" d="M98 1130v232q164 96 340 96q86 0 153.5 -20.5t127.5 -63.5q53 -39 84 -100.5t31 -143.5q0 -76 -25 -137q-25 -59 -66 -110q-37 -45 -86 -88q-47 -41 -84 -78q-43 -43 -65 -82q-27 -47 -27 -92q0 -49 11 -78q18 -53 22 -59h-211q-10 31 -16 63q-6 40 -6 80q0 61 24 110 q27 55 60 93q41 47 79 84l80 77q33 33 60 80q25 43 24 92q0 47 -16.5 78t-50.5 56q-33 23 -72 34q-33 10 -86 11q-148 -1 -285 -134zM274 114.5q0 59.5 41 94.5q45 41 103 41q53 0 98 -41q43 -37 43 -94.5t-43 -94.5q-41 -39 -98 -38q-61 0 -103 38q-41 35 -41 94.5z" />
<glyph unicode="@" horiz-adv-x="1953" d="M156 606q0 365 237.5 606.5t607.5 241.5q346 0 573.5 -202.5t227.5 -526.5q0 -238 -123 -391q-121 -152 -301 -152q-231 0 -231 215h-4q-70 -215 -283 -215q-135 0 -217 100.5t-82 270.5q0 225 113 375q111 147 297 147q74 0 125 -37q57 -41 71 -94h2q2 10 17 117h166 l-24.5 -285.5t-17.5 -198t-5 -55.5q0 -199 102 -198q94 0 155.5 110.5t61.5 286.5q0 260 -166 424q-168 166 -465 166q-285 0 -473 -201q-186 -199 -186 -498q0 -295 180 -475t485 -180q240 0 410 82v-156q-175 -74 -436 -73q-367 0 -592 221t-225 575zM743 557 q0 -111 45 -170q47 -63 121 -63q109 0 174.5 114.5t65.5 298.5q0 197 -162 197q-109 0 -176.5 -108.5t-67.5 -268.5z" />
<glyph unicode="A" horiz-adv-x="1374" d="M16 0l539 1434h266l535 -1434h-262l-129 365h-564l-125 -365h-260zM463 559h438l-199 571q-8 27 -18 91h-4q-10 -59 -21 -91z" />
<glyph unicode="B" horiz-adv-x="1236" d="M176 0v1434h457q207 0 328 -91q123 -92 122 -237q0 -119 -69.5 -211t-190.5 -129v-4q150 -18 236 -109q90 -94 90 -241q0 -182 -145.5 -297t-366.5 -115h-461zM414 190h202q133 0 207 62q72 59 72 170q0 221 -309 221h-172v-453zM414 836h153q125 0 195 57q72 59 72 166 q0 184 -246 184h-174v-407z" />
<glyph unicode="C" horiz-adv-x="1271" d="M86 690q0 344 211 555q213 213 534 213q205 0 347 -59v-236q-145 86 -322 86q-233 0 -376.5 -149.5t-143.5 -397.5q0 -240 133 -379t356 -139q201 0 353 97v-222q-164 -84 -404 -84q-311 0 -500 197q-188 199 -188 518z" />
<glyph unicode="D" horiz-adv-x="1468" d="M176 0v1434h416q793 0 792 -699q0 -332 -221 -534q-219 -201 -590 -201h-397zM414 201h190q252 0 391.5 139t139.5 389q0 504 -523 504h-198v-1032z" />
<glyph unicode="E" horiz-adv-x="1058" d="M176 0v1434h774v-201h-534v-408h491v-200h-491v-424h565v-201h-805z" />
<glyph unicode="F" horiz-adv-x="1028" d="M176 0v1434h774v-201h-534v-432h493v-201h-493v-600h-240z" />
<glyph unicode="G" horiz-adv-x="1427" d="M86 698q0 334 215 547q217 213 547 213q242 0 401 -69v-246q-166 111 -393 110.5t-375 -151.5q-145 -147 -145 -391q0 -250 125 -389q125 -141 342 -142q150 0 256 58v342h-301v198h538v-680q-223 -123 -499 -123q-315 0 -514 199q-197 196 -197 524z" />
<glyph unicode="H" horiz-adv-x="1505" d="M176 0v1434h240v-603h674v603h239v-1434h-239v623h-674v-623h-240z" />
<glyph unicode="I" horiz-adv-x="591" d="M45 0v193h131v1048h-131v193h502v-193h-131v-1048h131v-193h-502z" />
<glyph unicode="J" horiz-adv-x="811" d="M25 0v223q57 -39 147 -39q238 0 238 369v881h237v-920q0 -258 -125 -397q-125 -141 -336 -142q-87 0 -161 25z" />
<glyph unicode="K" horiz-adv-x="1249" d="M176 0v1434h240v-674h4q14 27 33 49l481 625h285l-564 -689l607 -745h-310l-499 655q-23 29 -33 52h-4v-707h-240z" />
<glyph unicode="L" horiz-adv-x="999" d="M176 0v1434h240v-1233h555v-201h-795z" />
<glyph unicode="M" horiz-adv-x="1892" d="M176 0v1434h336l377 -955q45 -113 55 -164h6q31 92 60 168l385 951h321v-1434h-235v928q0 123 14 278h-4q-23 -100 -39 -135l-428 -1071h-164l-430 1065q-12 29 -37 141h-4q8 -76 8 -280v-926h-221z" />
<glyph unicode="N" horiz-adv-x="1570" d="M176 0v1434h279l661 -1028q37 -55 53 -89h5q-10 66 -11 193v924h230v-1434h-260l-684 1055q-27 43 -43 82h-7q8 -41 9 -197v-940h-232z" />
<glyph unicode="O" horiz-adv-x="1546" d="M86 700q0 348 188 551q190 207 517 207q303 0 487 -201q184 -200 184 -522q0 -354 -188 -555q-193 -205 -506 -205q-307 0 -496 201q-186 198 -186 524zM336 714.5q0 -239.5 118.5 -385t313.5 -145.5q205 0 326 140q119 137 118 389q0 258 -114.5 397t-319.5 139 q-197 0 -319.5 -147.5t-122.5 -387z" />
<glyph unicode="P" horiz-adv-x="1196" d="M176 0v1434h436q246 0 383 -115q135 -115 135 -324t-141 -342q-143 -133 -385 -133h-190v-520h-238zM414 715h153q156 0 234 69q80 72 80 201q0 252 -293 252h-174v-522z" />
<glyph unicode="Q" horiz-adv-x="1546" d="M86 705q0 348 188 550q190 205 523 205q297 0 481 -198q184 -201 184 -525q0 -127 -28 -252q-27 -115 -88.5 -215t-145.5 -164q-88 -66 -211 -94q37 -37 98 -90q35 -29 95 -65q37 -23 96 -41q45 -14 108 -15q4 0 16.5 1t18.5 1q14 0 39 4q6 0 18.5 4.5t18.5 4.5 q4 0 33 12v-213q-25 -8 -39 -10l-45 -6q-29 -4 -43 -5q-8 0 -21.5 -1t-19.5 -1q-109 0 -186 29q-80 29 -154 84t-139 123l-142 149q-65 0 -129 13q-66 12 -127 37q-53 23 -116 63q-53 35 -103 88q-180 199 -180 527zM334 715q0 -236 121 -385q121 -145 313 -146 q205 0 326 140q119 137 118 389q0 262 -114 397q-113 139 -320 139q-199 0 -321.5 -147t-122.5 -387z" />
<glyph unicode="R" horiz-adv-x="1273" d="M176 0v1434h473q100 0 186.5 -25t147.5 -72t98 -120q35 -70 35 -170q0 -72 -22 -140q-23 -66 -64 -112q-45 -53 -100 -84q-68 -39 -131 -56v-4q45 -25 67 -47l56 -55q35 -41 51 -64q51 -74 57 -82l254 -403h-276l-230 385q-33 55 -61 90q-35 41 -60 62q-29 23 -65 34 q-31 10 -82 11h-96v-582h-238zM414 774h198q55 0 101 19q49 20 82 49q35 31 53 78t18 102q0 102 -65 162q-63 57 -187 57h-200v-467z" />
<glyph unicode="S" horiz-adv-x="1114" d="M111 1065q0 102 45 174t120 123q70 47 168 72q96 25 195 24q225 0 328 -51v-236q-121 88 -314 89q-49 0 -106 -11q-45 -8 -94 -32q-43 -20 -68 -60q-25 -37 -25 -86q0 -51 21 -84q27 -43 57 -63q43 -29 94 -56q68 -33 130 -59q63 -35 141 -84q70 -45 117 -94 q51 -55 79.5 -114.5t28.5 -145.5q0 -111 -43 -184.5t-119 -120.5q-74 -46 -172 -68q-102 -23 -205 -23q-35 0 -88 7q-29 4 -106 16q-55 9 -105 25q-45 14 -79 34v244q29 -27 79 -53q53 -29 97 -41q57 -16 100 -25q57 -10 94 -10q145 0 224 51q74 49 73 146q0 51 -24.5 88 t-67.5 67q-41 29 -104 60l-127 59q-49 27 -136 80q-68 41 -110 88q-43 45 -72 111q-26 59 -26 143z" />
<glyph unicode="T" horiz-adv-x="1128" d="M37 1233v201h1061v-201h-414v-1233h-238v1233h-409z" />
<glyph unicode="U" horiz-adv-x="1439" d="M160 557v877h237v-828q0 -422 328 -422q317 0 317 408v842h238v-854q0 -604 -571 -605q-549 0 -549 582z" />
<glyph unicode="V" horiz-adv-x="1312" d="M14 1434h260l355 -1088q12 -37 24 -121h4q6 53 29 123l363 1086h251l-514 -1434h-266z" />
<glyph unicode="W" horiz-adv-x="1976" d="M23 1434h260l260 -1049q18 -74 20 -139h4q2 49 29 139l295 1049h244l272 -1057q14 -49 20 -129h5q4 61 22 133l256 1053h246l-393 -1434h-269l-272 1004q-20 70 -23 139h-4q-6 -80 -22 -137l-275 -1006h-274z" />
<glyph unicode="X" horiz-adv-x="1267" d="M16 0l471 721l-432 713h291l258 -484l45 -96h4q27 61 49 100l271 480h266l-440 -711l450 -723h-284l-295 526q-16 31 -29 68h-4q-9 -22 -31 -68l-303 -526h-287z" />
<glyph unicode="Y" horiz-adv-x="1181" d="M10 1434h271l282 -615q4 -10 31 -84h2q12 39 33 84l295 615h252l-469 -914v-520h-238v516z" />
<glyph unicode="Z" horiz-adv-x="1200" d="M37 0v109l788 1124h-729v201h1059v-105l-786 -1128h776v-201h-1108z" />
<glyph unicode="[" horiz-adv-x="679" d="M209 -326v1760h412v-156h-215v-1448h215v-156h-412z" />
<glyph unicode="\" horiz-adv-x="827" d="M-12 1434h209l671 -1674h-204z" />
<glyph unicode="]" horiz-adv-x="679" d="M61 -170h215v1448h-215v156h412v-1760h-412v156z" />
<glyph unicode="^" horiz-adv-x="1421" d="M217 618l426 840h109l456 -840h-192l-311 605h-7l-290 -605h-191z" />
<glyph unicode="_" horiz-adv-x="849" d="M0 -178h850v-119h-850v119z" />
<glyph unicode="`" horiz-adv-x="589" d="M92 1532h213l221 -328h-172z" />
<glyph unicode="a" horiz-adv-x="1067" d="M76 274q0 289 334 338l303 43q0 219 -207 219q-186 0 -332 -124v202q164 96 375 97q389 0 389 -383v-666h-225v160h-4q-106 -184 -312 -185q-154 0 -237.5 82t-83.5 217zM297 299q0 -63 47 -106q43 -41 125 -41q102 0 174 75q70 72 70 187v90l-215 -31q-100 -12 -150 -49 q-51 -39 -51 -125z" />
<glyph unicode="b" horiz-adv-x="1232" d="M152 0v1516h231v-672h4q121 205 348 205q193 0 303 -138q111 -138 111 -368q0 -256 -125 -412t-336 -156q-200 0 -301 172h-4v-147h-231zM381 428q0 -113 71.5 -190.5t182.5 -77.5q127 0 200.5 100t73.5 281q0 152 -67 237q-66 84 -187 84q-123 0 -198.5 -88t-75.5 -219 v-127z" />
<glyph unicode="c" horiz-adv-x="962" d="M86 487q0 256 150 408q150 154 403 154q139 0 246 -50v-217q-108 80 -228 80q-145 0 -241 -98q-94 -96 -94 -260q0 -162 88 -252q90 -92 237 -92q125 0 238 90v-203q-125 -72 -291 -72q-225 0 -369 144q-139 139 -139 368z" />
<glyph unicode="d" horiz-adv-x="1232" d="M86 487q0 256 125 408q125 154 334 154q206 0 301 -166h4v633h231v-1516h-231v174h-4q-113 -199 -344 -199q-190 0 -303 137t-113 375zM322 498q0 -158 71.5 -248t192.5 -90q117 0 192.5 88t75.5 221v133q0 106 -72 184q-70 76 -182 76q-131 0 -203 -96 q-75 -100 -75 -268z" />
<glyph unicode="e" horiz-adv-x="1087" d="M86 508q0 238 141.5 389.5t350.5 151.5q213 0 325 -136q115 -137 115 -374v-90h-699q2 -141 89 -220q82 -76 229 -75q163 0 301 98v-189q-139 -88 -371 -88q-225 0 -354 140q-127 135 -127 393zM319 612h476q0 123 -60 195q-57 70 -160 70q-100 0 -169 -72 q-71 -74 -87 -193z" />
<glyph unicode="f" horiz-adv-x="704" d="M47 842v182h176v166q0 164 107 256q109 92 264 92q86 0 135 -18v-193q-45 27 -106 27q-168 0 -168 -191v-139h237v-182h-237v-842h-232v842h-176z" />
<glyph unicode="g" horiz-adv-x="1232" d="M86 479q0 262 123 416t338 154q203 0 301 -166h4v141h231v-942q0 -563 -567 -563q-203 0 -348 65v213q170 -96 317 -96q367 0 367 358v113h-4q-115 -197 -346 -197q-188 0 -303 138q-113 133 -113 366zM322 494q0 -152 71.5 -242t190.5 -90q121 0 194 86q76 88 76 221 v133q0 106 -72 184q-70 76 -180 76q-133 0 -205 -96q-75 -100 -75 -272z" />
<glyph unicode="h" horiz-adv-x="1191" d="M152 0v1516h233v-662h2q117 195 334 195q340 0 340 -418v-631h-232v559q0 305 -202 305q-102 0 -172 -88t-70 -225v-551h-233z" />
<glyph unicode="i" horiz-adv-x="534" d="M129 1370q0 57 41 94q43 39 98 39q57 0 101 -39q41 -37 41 -94q0 -51 -41 -92q-39 -39 -101 -39q-58 0 -98 37q-41 37 -41 94zM152 0v1024h231v-1024h-231z" />
<glyph unicode="j" horiz-adv-x="534" d="M-168 -252q63 -45 123 -45q197 0 197 346v975h231v-981q0 -256 -107 -389q-109 -135 -303 -135q-74 0 -141 30v199zM131 1370q0 57 41 94q43 39 96 39q57 0 101 -39q41 -37 41 -94q0 -51 -41 -92q-39 -39 -101 -39q-55 0 -96 37t-41 94z" />
<glyph unicode="k" horiz-adv-x="1073" d="M152 0v1516h233v-961h2l377 469h278l-421 -494l458 -530h-293l-399 492h-2v-492h-233z" />
<glyph unicode="l" horiz-adv-x="534" d="M152 0v1516h233v-1516h-233z" />
<glyph unicode="m" horiz-adv-x="1812" d="M152 0v1024h231v-162h4q111 186 324 187q102 0 184 -59.5t109 -153.5q115 213 339 213q338 0 338 -418v-631h-231v557q0 164 -45 234q-47 72 -154 71q-92 0 -155.5 -90t-63.5 -217v-555h-231v578q0 285 -203 284q-92 0 -153.5 -86t-61.5 -221v-555h-231z" />
<glyph unicode="n" horiz-adv-x="1193" d="M152 0v1024h233v-170h2q115 195 334 195q164 0 254 -109q88 -106 88 -313v-627h-232v578q0 287 -202 286q-109 0 -176.5 -79.5t-67.5 -200.5v-584h-233z" />
<glyph unicode="o" horiz-adv-x="1222" d="M86 500q0 258 147 403q150 145 398 146q238 0 373 -141.5t135 -391.5q0 -244 -146 -393q-145 -147 -389 -148q-236 0 -377 144t-141 381zM322 506q0 -162 79.5 -254t214.5 -92q137 0 211 92q72 90 72 258q0 170 -72 260q-74 92 -211 92q-135 0 -215 -94q-79 -96 -79 -262 z" />
<glyph unicode="p" horiz-adv-x="1232" d="M152 -471v1495h231v-180h4q121 205 348 205q197 0 303 -138q111 -141 111 -368q0 -254 -125 -410q-123 -154 -336 -153q-193 0 -301 172h-4v-623h-231zM381 428q0 -113 71.5 -190.5t182.5 -77.5q127 0 200.5 100t73.5 281q0 152 -67 237q-66 84 -187 84 q-123 0 -198.5 -88t-75.5 -219v-127z" />
<glyph unicode="q" horiz-adv-x="1232" d="M86 487q0 256 125 408q126 154 338 154q205 0 297 -166h4v141h231v-1495h-231v647h-4q-104 -201 -342 -201q-193 0 -305.5 137t-112.5 375zM322 494q0 -154 71.5 -244t186.5 -90q123 0 198.5 88t75.5 219v131q0 111 -72 188q-70 76 -182 76q-129 0 -203 -96 q-75 -98 -75 -272z" />
<glyph unicode="r" horiz-adv-x="757" d="M152 0v1024h231v-211h4q33 106 105 168q70 61 157 61q63 0 96 -18v-221q-41 33 -120 33q-104 0 -172 -93q-70 -94 -70 -254v-489h-231z" />
<glyph unicode="s" horiz-adv-x="882" d="M86 33v215q131 -100 289 -101q209 0 209 125q0 35 -19 60q-20 27 -47 43q-39 23 -72 35l-94 32q-55 20 -112 54q-53 31 -84 63q-35 37 -52 80q-16 41 -16 106q0 72 35 129q33 55 94 97q55 39 133 57q82 20 156 21q143 0 254 -43v-203q-109 74 -248 74q-39 0 -80 -11 q-33 -8 -59 -24q-20 -12 -39 -39q-14 -20 -15 -49q0 -35 15 -56q18 -27 41 -41q27 -18 65 -32q14 -6 43 -15.5t45 -15.5q76 -33 119 -55q57 -31 90 -64q37 -37 58 -82q18 -39 18 -110q0 -80 -35 -136q-39 -61 -96 -96q-68 -41 -139 -57q-80 -18 -164 -19q-166 1 -293 58z " />
<glyph unicode="t" horiz-adv-x="739" d="M43 842v182h170v238l233 65v-303h244v-182h-244v-512q0 -90 33 -129t111 -39q59 0 100 33v-185q-66 -33 -178 -33q-299 0 -299 285v580h-170z" />
<glyph unicode="u" horiz-adv-x="1193" d="M131 412v612h231v-588q0 -276 213 -276q102 0 170 76q66 74 66 198v590h233v-1024h-233v162h-2q-100 -186 -315 -187q-363 1 -363 437z" />
<glyph unicode="v" horiz-adv-x="1038" d="M8 1024h252l227 -717q29 -90 33 -137h2q8 63 29 133l237 721h244l-395 -1024h-252z" />
<glyph unicode="w" horiz-adv-x="1548" d="M20 1024h240l186 -737q10 -35 13 -88h6q2 35 16 90l207 735h217l185 -741q12 -43 14 -88h6q4 43 14 88l183 741h221l-301 -1024h-244l-186 694q-10 35 -15 90h-4q-4 -43 -16 -88l-203 -696h-237z" />
<glyph unicode="x" horiz-adv-x="1024" d="M16 0l349 502l-330 522h270l176 -334q18 -33 39 -76h4l230 410h254l-342 -518l338 -506h-271l-178 317q-23 33 -41 74h-4q-2 -4 -41 -74l-184 -317h-269z" />
<glyph unicode="y" horiz-adv-x="1040" d="M6 1024h256l246 -743q8 -41 16 -74h6q4 14 19 72l256 745h233l-463 -1188q-143 -317 -403 -317q-74 0 -123 12v193q55 -18 101 -19q129 0 194 129l70 168z" />
<glyph unicode="z" horiz-adv-x="950" d="M29 0v86l565 758h-510v180h823v-96l-553 -748h551v-180h-876z" />
<glyph unicode="{" horiz-adv-x="679" d="M96 481v146q156 8 156 213v286q0 304 356 308v-154q-160 -2 -159 -193v-280q0 -205 -199 -250v-2q199 -43 199 -248v-278q0 -108 36 -154q35 -45 123 -47v-154q-356 2 -356 303v295q0 201 -156 209z" />
<glyph unicode="|" horiz-adv-x="569" d="M188 -481v2048h195v-2048h-195z" />
<glyph unicode="}" horiz-adv-x="679" d="M74 -172q88 4 123 47q37 46 36 154v278q0 205 197 248v2q-197 45 -197 250v280q0 190 -159 193v154q354 -4 354 -308v-286q0 -203 156 -213v-146q-156 -10 -156 -209v-295q0 -299 -354 -303v154z" />
<glyph unicode="~" horiz-adv-x="1421" d="M203 422q6 156 80 244q74 90 200 90q117 0 238 -76q129 -90 197 -90q61 0 98 47q35 45 39 123h166q-6 -160 -82 -248q-74 -86 -199 -86q-113 0 -266 96q-98 68 -160 68q-139 0 -145 -168h-166z" />
<glyph unicode="&#xa1;" horiz-adv-x="620" d="M168 911q0 57 41 96.5t102 39.5q59 0 101 -39q43 -41 43 -96.5t-43 -94.5q-41 -39 -101 -39q-61 0 -102 39t-41 94zM190 -406l27 1010h191l26 -1010h-244z" />
<glyph unicode="&#xa2;" d="M176 649q0 219 123 366.5t332 184.5v213h141v-203q115 -4 203 -51v-213q-92 68 -203 74v-690q111 12 203 86v-207q-92 -61 -203 -70v-188h-141v190q-207 20 -332 162q-123 139 -123 346zM403 670q0 -133 61.5 -219t166.5 -111v670q-104 -27 -168 -119q-60 -86 -60 -221z " />
<glyph unicode="&#xa3;" d="M123 0v176q207 61 207 281v168h-187v176h187v243q0 182 114 297q117 117 299 117q123 0 228 -41v-200q-94 57 -203 57q-217 0 -217 -268v-205h285v-176h-285v-138q0 -215 -193 -301h697v-186h-932z" />
<glyph unicode="&#xa4;" d="M78 356l139 136q-72 113 -72 233q0 125 72 233l-139 138l115 118l141 -139q109 72 235.5 72t235.5 -72l141 139l115 -118l-139 -138q74 -111 73 -233q0 -120 -73 -233l139 -136l-115 -118l-139 139q-106 -72 -237.5 -72t-239.5 70l-137 -137zM311 727q0 -106 76 -182 t182 -76q109 0 184.5 76t75.5 182q0 104 -77 182q-76 76 -183 76q-111 0 -184 -76q-74 -78 -74 -182z" />
<glyph unicode="&#xa5;" d="M55 1434h250l232 -494q27 -59 43 -106h4q14 43 45 112l227 488h238l-357 -650h271v-161h-322v-183h322v-161h-322v-279h-227v279h-332v161h332v183h-332v161h276z" />
<glyph unicode="&#xa6;" horiz-adv-x="569" d="M188 389h195v-870h-195v870zM188 700v867h195v-867h-195z" />
<glyph unicode="&#xa7;" horiz-adv-x="950" d="M131 729q0 162 145 242q-106 82 -106 225q0 129 100 213q96 82 260 82q138 0 234 -43v-191q-101 61 -221 62q-166 0 -166 -127q0 -47 41 -88q45 -45 207 -111q225 -109 225 -293q0 -166 -154 -276q90 -74 90 -188q0 -135 -106 -218q-109 -84 -272 -84q-141 0 -256 56v196 q131 -80 254 -80q86 0 131 37q47 37 47 90q0 46 -37 80q-37 33 -180 103q-236 120 -236 313zM328 743q0 -63 53 -112q52 -49 184 -105q84 61 84 154q0 61 -49 108q-45 41 -176 97q-96 -48 -96 -142z" />
<glyph unicode="&#xa8;" horiz-adv-x="890" d="M106 1321q0 47 37 82q35 33 86 33q49 0 88 -35q37 -33 37 -80q0 -51 -35 -84q-39 -35 -86 -35q-51 0 -90 35q-37 33 -37 84zM526 1321q0 47 35 82q33 33 84 33t90 -35q37 -33 37 -80q0 -49 -35 -84t-88 -35q-47 0 -86 35q-37 33 -37 84z" />
<glyph unicode="&#xa9;" horiz-adv-x="1806" d="M147 717q0 310 222 528q219 217 536 217q315 0 535 -217q221 -218 221 -528q0 -307 -221 -527q-223 -219 -535 -219q-313 0 -536 219q-222 220 -222 527zM256 717q0 -266 190.5 -456.5t459 -190.5t458.5 190q188 188 188 456.5t-188 457.5q-190 190 -458.5 190 t-459 -190.5t-190.5 -456.5zM451 692q0 242 143 385.5t373 143.5q133 0 235 -52v-188q-90 72 -233.5 72t-237.5 -94.5t-94 -247.5q0 -152 96 -244q94 -92 242 -92q135 0 231 78v-179q-113 -63 -268 -63q-209 0 -348 137t-139 344z" />
<glyph unicode="&#xaa;" horiz-adv-x="819" d="M78 911q0 205 241 238l226 31q0 143 -146 143q-137 0 -252 -82v150q113 63 277 63q135 0 211 -69.5t76 -202.5v-465h-166v100h-4q-78 -121 -226 -121q-108 0 -172 62q-65 61 -65 153zM246 928q0 -47 33 -74q35 -29 92 -29q68 0 121 53.5t53 129.5v59l-156 -23 q-143 -20 -143 -116z" />
<glyph unicode="&#xab;" horiz-adv-x="1103" d="M74 537l313 344h211l-317 -344l317 -336h-211zM508 537l309 344h215l-317 -344l317 -336h-215z" />
<glyph unicode="&#xac;" horiz-adv-x="1421" d="M236 672v164h954v-578h-164v414h-790z" />
<glyph unicode="&#xad;" horiz-adv-x="821" d="M690 473h-547v172h547v-172z" />
<glyph unicode="&#xae;" horiz-adv-x="1806" d="M147 717q0 310 222 528q219 217 536 217q315 0 535 -217q221 -218 221 -528q0 -307 -221 -527q-223 -219 -535 -219q-313 0 -536 219q-222 220 -222 527zM256 717q0 -266 190.5 -456.5t459 -190.5t458.5 190q188 188 188 456.5t-188 457.5q-190 190 -458.5 190 t-459 -190.5t-190.5 -456.5zM594 256v938h283q175 0 270 -68q96 -68 96 -188q0 -94 -59 -164q-61 -72 -172 -92v-2q82 -18 157 -174l123 -250h-209l-92 215q-72 164 -151 164h-78v-379h-168zM762 770h127q172 0 172 141q0 80 -47 111q-46 31 -148 31h-104v-283z" />
<glyph unicode="&#xaf;" horiz-adv-x="849" d="M0 1397v119h850v-119h-850z" />
<glyph unicode="&#xb0;" horiz-adv-x="774" d="M111 1178q0 115 82 196q80 80 196 80q119 0 201 -80t82 -196.5t-82 -198.5t-199 -82t-198.5 82t-81.5 199zM248 1178q0 -63 41 -105q45 -45 100 -45q57 0 102.5 45t45.5 104.5t-43 102.5q-41 41 -102.5 41t-102.5 -41t-41 -102z" />
<glyph unicode="&#xb1;" horiz-adv-x="1421" d="M236 0v164h954v-164h-954zM236 672v164h397v397h162v-397h395v-164h-395v-398h-162v398h-397z" />
<glyph unicode="&#xb2;" horiz-adv-x="784" d="M686 883h-577v133l231 221q98 96 125 145q27 51 27 102.5t-33 82.5q-37 33 -88 32q-117 0 -215 -102v178q88 78 241 78q127 0 201 -67.5t74 -182.5q0 -141 -195 -323l-153 -146v-4h362v-147z" />
<glyph unicode="&#xb3;" horiz-adv-x="784" d="M129 915v160q104 -74 219 -74q78 0 119 33q45 35 45 90q0 123 -215 123h-84v142h80q190 0 190 116q0 106 -131 107q-98 0 -192 -68v156q88 53 225 53q123 0 194.5 -61.5t71.5 -155.5q0 -150 -143 -201v-4q174 -43 174 -201q0 -119 -90 -192q-92 -76 -242 -76 q-139 0 -221 53z" />
<glyph unicode="&#xb4;" horiz-adv-x="595" d="M111 1219l241 327h215l-284 -327h-172z" />
<glyph unicode="&#xb5;" horiz-adv-x="1214" d="M152 -395v1419h231v-610q0 -109 59 -178q57 -66 154 -66q102 0 168 78q63 76 63 209v567h236v-760q0 -184 35 -264h-240q-23 72 -22 162h-5q-74 -184 -243 -185q-141 0 -203 97h-2v-469h-231z" />
<glyph unicode="&#xb6;" horiz-adv-x="983" d="M84 1155q0 123 80 201q82 78 192 78h529v-129h-123v-1305h-137v1305h-140v-1305h-139v874q-115 0 -188.5 80t-73.5 201z" />
<glyph unicode="&#xb7;" horiz-adv-x="493" d="M102 635q0 57 43 96q41 39 102.5 39t102.5 -39q43 -39 43 -96t-43 -96q-41 -39 -104 -39q-59 0 -101 39q-43 39 -43 96z" />
<glyph unicode="&#xb8;" horiz-adv-x="428" d="M51 -328q43 -6 72 -6q133 0 133 82q0 74 -123 74q-2 0 -39 -4v182h137v-94q84 0 138 -41q51 -39 51 -113q0 -195 -289 -194q-35 0 -80 4v110z" />
<glyph unicode="&#xb9;" horiz-adv-x="757" d="M676 883h-531v139h181v541l-193 -47v149l363 88v-731h180v-139z" />
<glyph unicode="&#xba;" horiz-adv-x="903" d="M74 1073q0 180 106.5 280.5t280.5 100.5q170 0 268 -98.5t98 -270.5q0 -182 -102 -284q-104 -104 -279 -105q-176 0 -274 101t-98 276zM254 1073q0 -111 51 -174t148 -63q90 0 143 65.5t53 176t-51 174t-145 63.5q-90 0 -146 -64q-53 -61 -53 -178z" />
<glyph unicode="&#xbb;" horiz-adv-x="1103" d="M74 201l319 338l-319 342h215l311 -342l-311 -338h-215zM510 201l313 338l-313 342h211l311 -342l-311 -338h-211z" />
<glyph unicode="&#xbc;" horiz-adv-x="1896" d="M658 584h-531v139h181v541l-193 -47v149l363 88v-731h180v-139zM1446 1434l-875 -1434h-188l872 1434h191zM1769 190h-111v-190h-167v190h-396v115l363 545h200v-529h111v-131zM1495 702h-6q-14 -35 -39 -74l-195 -307h236v299q0 12 4 82z" />
<glyph unicode="&#xbd;" horiz-adv-x="1937" d="M658 584h-531v139h181v541l-193 -47v149l363 88v-731h180v-139zM1790 0h-577v133l231 221q98 96 125 145q27 51 27 102.5t-33 82.5q-37 33 -88 32q-117 0 -215 -102v178q88 78 241 78q127 0 201 -67.5t74 -182.5q0 -141 -195 -323l-153 -146v-4h362v-147zM1444 1434 l-875 -1434h-188l872 1434h191z" />
<glyph unicode="&#xbe;" horiz-adv-x="1974" d="M129 616v160q104 -74 219 -74q78 0 119 33q45 35 45 90q0 123 -215 123h-84v142h80q190 0 190 116q0 106 -131 107q-98 0 -192 -68v156q88 53 225 53q123 0 194.5 -61.5t71.5 -155.5q0 -150 -143 -201v-4q174 -43 174 -201q0 -119 -90 -192q-92 -76 -242 -76 q-139 0 -221 53zM1512 1434l-875 -1434h-188l872 1434h191zM1825 190h-111v-190h-167v190h-396v115l363 545h200v-529h111v-131zM1551 702h-6q-14 -35 -39 -74l-195 -307h236v299q0 12 4 82z" />
<glyph unicode="&#xbf;" horiz-adv-x="907" d="M102 -94q0 74 25 131q23 53 66 106q33 41 86 90l86 82q39 39 65.5 86.5t26.5 98.5q0 33 -10.5 67.5t-18.5 53.5h207q8 -20 14 -64q8 -53 8 -78q0 -59 -24 -108q-27 -55 -60 -92q-41 -47 -77 -82q-41 -39 -78 -78q-35 -39 -62 -84q-23 -39 -22 -98q0 -43 14 -74 q15 -34 43 -56q27 -20 64 -32q31 -10 75 -11q178 0 308 132v-232q-158 -94 -334 -94q-78 0 -156 22q-72 20 -127 64q-61 47 -88 104q-31 64 -31 146zM377 911q0 59 43 97q41 39 98 39t103 -39q43 -37 43 -97q0 -55 -43 -94q-45 -41 -103 -41q-53 0 -98 41q-43 39 -43 94z " />
<glyph unicode="&#xc0;" horiz-adv-x="1374" d="M16 0l539 1434h266l535 -1434h-262l-129 365h-564l-125 -365h-260zM463 559h438l-199 571q-8 27 -18 91h-4q-10 -59 -21 -91zM393 1894h213l221 -328h-172z" />
<glyph unicode="&#xc1;" horiz-adv-x="1374" d="M16 0l539 1434h266l535 -1434h-262l-129 365h-564l-125 -365h-260zM463 559h438l-199 571q-8 27 -18 91h-4q-10 -59 -21 -91zM496 1581l241 327h215l-284 -327h-172z" />
<glyph unicode="&#xc2;" horiz-adv-x="1374" d="M16 0l539 1434h266l535 -1434h-262l-129 365h-564l-125 -365h-260zM463 559h438l-199 571q-8 27 -18 91h-4q-10 -59 -21 -91zM363 1566l223 328h184l225 -328h-159l-162 211l-158 -211h-153z" />
<glyph unicode="&#xc3;" horiz-adv-x="1374" d="M16 0l539 1434h266l535 -1434h-262l-129 365h-564l-125 -365h-260zM463 559h438l-199 571q-8 27 -18 91h-4q-10 -59 -21 -91zM344 1554q0 121 51 190q53 72 143 72q68 0 156 -51q70 -43 127 -43q80 0 80 113h119q0 -117 -52 -189q-53 -74 -139 -74q-78 0 -166 48 q-76 45 -121 45q-84 0 -83 -111h-115z" />
<glyph unicode="&#xc4;" horiz-adv-x="1374" d="M16 0l539 1434h266l535 -1434h-262l-129 365h-564l-125 -365h-260zM463 559h438l-199 571q-8 27 -18 91h-4q-10 -59 -21 -91zM344 1683q0 47 37 82q35 33 86 33q49 0 88 -35q37 -33 37 -80q0 -51 -35 -84q-39 -35 -86 -35q-51 0 -90 35q-37 33 -37 84zM764 1683 q0 47 35 82q33 33 84 33t90 -35q37 -33 37 -80q0 -49 -35 -84t-88 -35q-47 0 -86 35q-37 33 -37 84z" />
<glyph unicode="&#xc5;" horiz-adv-x="1374" d="M16 0l539 1434h266l535 -1434h-262l-129 365h-564l-125 -365h-260zM463 559h438l-199 571q-8 27 -18 91h-4q-10 -59 -21 -91zM678 1334q-94 0 -156 55t-62 141q0 98 63.5 155.5t162 57.5t157.5 -57q61 -57 62 -150q0 -86 -66 -145q-63 -57 -161 -57zM678 1645 q-43 0 -74 -30.5t-31 -74.5q0 -104 105 -104q51 0 79 29q31 31 31 75q0 43 -30.5 74t-79.5 31z" />
<glyph unicode="&#xc6;" horiz-adv-x="1830" d="M6 0l711 1434h999v-201h-534v-408h497v-200h-497v-424h567v-201h-805v365h-491l-172 -365h-275zM541 559h403v674h-86z" />
<glyph unicode="&#xc7;" horiz-adv-x="1271" d="M86 690q0 344 211 555q213 213 534 213q205 0 347 -59v-236q-145 86 -322 86q-233 0 -376.5 -149.5t-143.5 -397.5q0 -240 133 -379t356 -139q201 0 353 97v-222q-164 -84 -404 -84q-311 0 -500 197q-188 199 -188 518zM614 -328q43 -6 72 -6q133 0 133 82q0 74 -123 74 q-2 0 -39 -4v182h137v-94q84 0 138 -41q51 -39 51 -113q0 -195 -289 -194q-35 0 -80 4v110z" />
<glyph unicode="&#xc8;" horiz-adv-x="1058" d="M176 0v1434h774v-201h-534v-408h491v-200h-491v-424h565v-201h-805zM297 1894h213l221 -328h-172z" />
<glyph unicode="&#xc9;" horiz-adv-x="1058" d="M176 0v1434h774v-201h-534v-408h491v-200h-491v-424h565v-201h-805zM416 1581l241 327h215l-284 -327h-172z" />
<glyph unicode="&#xca;" horiz-adv-x="1058" d="M176 0v1434h774v-201h-534v-408h491v-200h-491v-424h565v-201h-805zM240 1566l223 328h184l225 -328h-159l-162 211l-158 -211h-153z" />
<glyph unicode="&#xcb;" horiz-adv-x="1058" d="M176 0v1434h774v-201h-534v-408h491v-200h-491v-424h565v-201h-805zM233 1683q0 47 37 82q35 33 86 33q49 0 88 -35q37 -33 37 -80q0 -51 -35 -84q-39 -35 -86 -35q-51 0 -90 35q-37 33 -37 84zM653 1683q0 47 35 82q33 33 84 33t90 -35q37 -33 37 -80q0 -49 -35 -84 t-88 -35q-47 0 -86 35q-37 33 -37 84z" />
<glyph unicode="&#xcc;" horiz-adv-x="591" d="M45 0v193h131v1048h-131v193h502v-193h-131v-1048h131v-193h-502zM35 1894h213l221 -328h-172z" />
<glyph unicode="&#xcd;" horiz-adv-x="591" d="M45 0v193h131v1048h-131v193h502v-193h-131v-1048h131v-193h-502zM127 1581l241 327h215l-284 -327h-172z" />
<glyph unicode="&#xce;" horiz-adv-x="591" d="M45 0v193h131v1048h-131v193h502v-193h-131v-1048h131v-193h-502zM-12 1566l223 328h184l225 -328h-159l-162 211l-158 -211h-153z" />
<glyph unicode="&#xcf;" horiz-adv-x="591" d="M45 0v193h131v1048h-131v193h502v-193h-131v-1048h131v-193h-502zM-31 1683q0 47 37 82q35 33 86 33q49 0 88 -35q37 -33 37 -80q0 -51 -35 -84q-39 -35 -86 -35q-51 0 -90 35q-37 33 -37 84zM389 1683q0 47 35 82q33 33 84 33t90 -35q37 -33 37 -80q0 -49 -35 -84 t-88 -35q-47 0 -86 35q-37 33 -37 84z" />
<glyph unicode="&#xd0;" horiz-adv-x="1468" d="M14 616v205h162v613h416q793 0 792 -699q0 -335 -221 -534q-223 -201 -590 -201h-397v616h-162zM414 201h190q252 0 391.5 139t139.5 391q0 502 -523 502h-198v-412h307v-205h-307v-415z" />
<glyph unicode="&#xd1;" horiz-adv-x="1570" d="M176 0v1434h279l661 -1028q37 -55 53 -89h5q-10 66 -11 193v924h230v-1434h-260l-684 1055q-27 43 -43 82h-7q8 -41 9 -197v-940h-232zM477 1554q0 121 51 190q53 72 143 72q68 0 156 -51q70 -43 127 -43q80 0 80 113h119q0 -117 -52 -189q-53 -74 -139 -74 q-78 0 -166 48q-76 45 -121 45q-84 0 -83 -111h-115z" />
<glyph unicode="&#xd2;" horiz-adv-x="1546" d="M86 700q0 348 188 551q190 207 517 207q303 0 487 -201q184 -200 184 -522q0 -354 -188 -555q-193 -205 -506 -205q-307 0 -496 201q-186 198 -186 524zM336 714.5q0 -239.5 118.5 -385t313.5 -145.5q205 0 326 140q119 137 118 389q0 258 -114.5 397t-319.5 139 q-197 0 -319.5 -147.5t-122.5 -387zM485 1894h213l221 -328h-172z" />
<glyph unicode="&#xd3;" horiz-adv-x="1546" d="M86 700q0 348 188 551q190 207 517 207q303 0 487 -201q184 -200 184 -522q0 -354 -188 -555q-193 -205 -506 -205q-307 0 -496 201q-186 198 -186 524zM336 714.5q0 -239.5 118.5 -385t313.5 -145.5q205 0 326 140q119 137 118 389q0 258 -114.5 397t-319.5 139 q-197 0 -319.5 -147.5t-122.5 -387zM619 1581l241 327h215l-284 -327h-172z" />
<glyph unicode="&#xd4;" horiz-adv-x="1546" d="M86 700q0 348 188 551q190 207 517 207q303 0 487 -201q184 -200 184 -522q0 -354 -188 -555q-193 -205 -506 -205q-307 0 -496 201q-186 198 -186 524zM336 714.5q0 -239.5 118.5 -385t313.5 -145.5q205 0 326 140q119 137 118 389q0 258 -114.5 397t-319.5 139 q-197 0 -319.5 -147.5t-122.5 -387zM469 1566l223 328h184l225 -328h-159l-162 211l-158 -211h-153z" />
<glyph unicode="&#xd5;" horiz-adv-x="1546" d="M86 700q0 348 188 551q190 207 517 207q303 0 487 -201q184 -200 184 -522q0 -354 -188 -555q-193 -205 -506 -205q-307 0 -496 201q-186 198 -186 524zM336 714.5q0 -239.5 118.5 -385t313.5 -145.5q205 0 326 140q119 137 118 389q0 258 -114.5 397t-319.5 139 q-197 0 -319.5 -147.5t-122.5 -387zM447 1554q0 121 51 190q53 72 143 72q68 0 156 -51q70 -43 127 -43q80 0 80 113h119q0 -117 -52 -189q-53 -74 -139 -74q-78 0 -166 48q-76 45 -121 45q-84 0 -83 -111h-115z" />
<glyph unicode="&#xd6;" horiz-adv-x="1546" d="M86 700q0 348 188 551q190 207 517 207q303 0 487 -201q184 -200 184 -522q0 -354 -188 -555q-193 -205 -506 -205q-307 0 -496 201q-186 198 -186 524zM336 714.5q0 -239.5 118.5 -385t313.5 -145.5q205 0 326 140q119 137 118 389q0 258 -114.5 397t-319.5 139 q-197 0 -319.5 -147.5t-122.5 -387zM440 1681q0 47 37 82q35 33 86 33q49 0 88 -35q37 -33 37 -80q0 -51 -35 -84q-39 -35 -86 -35q-51 0 -90 35q-37 33 -37 84zM860 1681q0 47 35 82q33 33 84 33t90 -35q37 -33 37 -80q0 -49 -35 -84t-88 -35q-47 0 -86 35q-37 33 -37 84z " />
<glyph unicode="&#xd7;" horiz-adv-x="1421" d="M256 254l340 338l-340 340l115 117l342 -340l340 340l114 -119l-340 -338l340 -338l-114 -117l-340 340l-340 -340z" />
<glyph unicode="&#xd8;" horiz-adv-x="1546" d="M86 700q0 344 188.5 551t518.5 207q233 0 401 -125l131 158l98 -82l-137 -162q176 -195 176 -512q0 -354 -188 -555q-193 -205 -506 -205q-258 0 -432 146l-150 -176l-98 82l154 184q-156 192 -156 489zM324 715q0 -188 75 -322l658 778q-113 90 -277 91 q-203 0 -329.5 -151.5t-126.5 -395.5zM477 289q113 -117 291 -117q209 0 334 143q123 141 123 398q0 223 -88 356z" />
<glyph unicode="&#xd9;" horiz-adv-x="1439" d="M160 557v877h237v-828q0 -422 328 -422q317 0 317 408v842h238v-854q0 -604 -571 -605q-549 0 -549 582zM434 1894h213l221 -328h-172z" />
<glyph unicode="&#xda;" horiz-adv-x="1439" d="M160 557v877h237v-828q0 -422 328 -422q317 0 317 408v842h238v-854q0 -604 -571 -605q-549 0 -549 582zM572 1581l241 327h215l-284 -327h-172z" />
<glyph unicode="&#xdb;" horiz-adv-x="1439" d="M160 557v877h237v-828q0 -422 328 -422q317 0 317 408v842h238v-854q0 -604 -571 -605q-549 0 -549 582zM406 1566l223 328h184l225 -328h-159l-162 211l-158 -211h-153z" />
<glyph unicode="&#xdc;" horiz-adv-x="1439" d="M160 557v877h237v-828q0 -422 328 -422q317 0 317 408v842h238v-854q0 -604 -571 -605q-549 0 -549 582zM385 1683q0 47 37 82q35 33 86 33q49 0 88 -35q37 -33 37 -80q0 -51 -35 -84q-39 -35 -86 -35q-51 0 -90 35q-37 33 -37 84zM805 1683q0 47 35 82q33 33 84 33 t90 -35q37 -33 37 -80q0 -49 -35 -84t-88 -35q-47 0 -86 35q-37 33 -37 84z" />
<glyph unicode="&#xdd;" horiz-adv-x="1181" d="M10 1434h271l282 -615q4 -10 31 -84h2q12 39 33 84l295 615h252l-469 -914v-520h-238v516zM451 1567l241 327h215l-284 -327h-172z" />
<glyph unicode="&#xde;" horiz-adv-x="1196" d="M176 0v1434h240v-220h207q244 0 376 -114q131 -113 131 -326q0 -211 -143 -342t-385 -131h-186v-301h-240zM416 496h153q150 0 232 69q80 68 80 199q0 256 -293 256h-172v-524z" />
<glyph unicode="&#xdf;" horiz-adv-x="1189" d="M152 0v1083q0 207 122 330q125 125 332 125q186 0 299 -96q111 -95 111 -252q0 -129 -74 -231.5t-188 -141.5v-6q371 -74 370 -422q0 -174 -120 -295q-119 -119 -316 -119q-100 0 -190 27v207q72 -49 157 -49q100 0 166 65.5t66 171.5q0 129 -96 213q-92 80 -265 99v172 q111 18 181 92q72 76 71 176q0 96 -51 151q-49 53 -135 54q-209 0 -209 -281v-1073h-231z" />
<glyph unicode="&#xe0;" horiz-adv-x="1067" d="M76 274q0 289 334 338l303 43q0 219 -207 219q-186 0 -332 -124v202q164 96 375 97q389 0 389 -383v-666h-225v160h-4q-106 -184 -312 -185q-154 0 -237.5 82t-83.5 217zM297 299q0 -63 47 -106q43 -41 125 -41q102 0 174 75q70 72 70 187v90l-215 -31q-100 -12 -150 -49 q-51 -39 -51 -125zM285 1532h213l221 -328h-172z" />
<glyph unicode="&#xe1;" horiz-adv-x="1067" d="M76 274q0 289 334 338l303 43q0 219 -207 219q-186 0 -332 -124v202q164 96 375 97q389 0 389 -383v-666h-225v160h-4q-106 -184 -312 -185q-154 0 -237.5 82t-83.5 217zM297 299q0 -63 47 -106q43 -41 125 -41q102 0 174 75q70 72 70 187v90l-215 -31q-100 -12 -150 -49 q-51 -39 -51 -125zM371 1219l241 327h215l-284 -327h-172z" />
<glyph unicode="&#xe2;" horiz-adv-x="1067" d="M76 274q0 289 334 338l303 43q0 219 -207 219q-186 0 -332 -124v202q164 96 375 97q389 0 389 -383v-666h-225v160h-4q-106 -184 -312 -185q-154 0 -237.5 82t-83.5 217zM297 299q0 -63 47 -106q43 -41 125 -41q102 0 174 75q70 72 70 187v90l-215 -31q-100 -12 -150 -49 q-51 -39 -51 -125zM222 1204l223 328h184l225 -328h-159l-162 211l-158 -211h-153z" />
<glyph unicode="&#xe3;" horiz-adv-x="1067" d="M76 274q0 289 334 338l303 43q0 219 -207 219q-186 0 -332 -124v202q164 96 375 97q389 0 389 -383v-666h-225v160h-4q-106 -184 -312 -185q-154 0 -237.5 82t-83.5 217zM297 299q0 -63 47 -106q43 -41 125 -41q102 0 174 75q70 72 70 187v90l-215 -31q-100 -12 -150 -49 q-51 -39 -51 -125zM197 1194q0 121 51 190q53 72 143 72q68 0 156 -51q70 -43 127 -43q80 0 80 113h119q0 -117 -52 -189q-53 -74 -139 -74q-78 0 -166 48q-76 45 -121 45q-84 0 -83 -111h-115z" />
<glyph unicode="&#xe4;" horiz-adv-x="1067" d="M76 274q0 289 334 338l303 43q0 219 -207 219q-186 0 -332 -124v202q164 96 375 97q389 0 389 -383v-666h-225v160h-4q-106 -184 -312 -185q-154 0 -237.5 82t-83.5 217zM297 299q0 -63 47 -106q43 -41 125 -41q102 0 174 75q70 72 70 187v90l-215 -31q-100 -12 -150 -49 q-51 -39 -51 -125zM198 1321q0 47 37 82q35 33 86 33q49 0 88 -35q37 -33 37 -80q0 -51 -35 -84q-39 -35 -86 -35q-51 0 -90 35q-37 33 -37 84zM618 1321q0 47 35 82q33 33 84 33t90 -35q37 -33 37 -80q0 -49 -35 -84t-88 -35q-47 0 -86 35q-37 33 -37 84z" />
<glyph unicode="&#xe5;" horiz-adv-x="1067" d="M76 274q0 289 334 338l303 43q0 219 -207 219q-186 0 -332 -124v202q164 96 375 97q389 0 389 -383v-666h-225v160h-4q-106 -184 -312 -185q-154 0 -237.5 82t-83.5 217zM297 299q0 -63 47 -106q43 -41 125 -41q102 0 174 75q70 72 70 187v90l-215 -31q-100 -12 -150 -49 q-51 -39 -51 -125zM541 1180q-94 0 -156 55t-62 141q0 98 63.5 155.5t162 57.5t157.5 -57q61 -57 62 -150q0 -86 -66 -145q-63 -57 -161 -57zM541 1491q-43 0 -74 -30.5t-31 -74.5q0 -104 105 -104q51 0 79 29q31 31 31 75q0 43 -30.5 74t-79.5 31z" />
<glyph unicode="&#xe6;" horiz-adv-x="1699" d="M76 279q0 307 379 331l258 17q0 250 -201 250q-178 0 -336 -115v194q151 92 356 93q240 0 312 -170h4q115 170 348 170q206 0 320 -136q115 -137 114 -376v-88h-698q4 -143 84 -220q84 -78 225 -77q168 0 309 100v-186q-137 -90 -366 -91q-274 0 -389 207h-4 q-141 -207 -373 -207q-158 0 -252 84q-90 83 -90 220zM297 295q0 -66 45 -104.5t127 -38.5q100 0 172 73q72 76 72 187v55l-176 -10q-123 -6 -181 -43q-59 -37 -59 -119zM932 612h475q-4 131 -59 197q-57 68 -160 68q-98 0 -170 -72q-70 -70 -86 -193z" />
<glyph unicode="&#xe7;" horiz-adv-x="962" d="M86 487q0 256 150 408q150 154 403 154q139 0 246 -50v-217q-108 80 -228 80q-145 0 -241 -98q-94 -96 -94 -260q0 -162 88 -252q90 -92 237 -92q125 0 238 90v-203q-125 -72 -291 -72q-225 0 -369 144q-139 139 -139 368zM432 -328q43 -6 72 -6q133 0 133 82 q0 74 -123 74q-2 0 -39 -4v182h137v-94q84 0 138 -41q51 -39 51 -113q0 -195 -289 -194q-35 0 -80 4v110z" />
<glyph unicode="&#xe8;" horiz-adv-x="1087" d="M86 508q0 238 141.5 389.5t350.5 151.5q213 0 325 -136q115 -137 115 -374v-90h-699q2 -141 89 -220q82 -76 229 -75q163 0 301 98v-189q-139 -88 -371 -88q-225 0 -354 140q-127 135 -127 393zM319 612h476q0 123 -60 195q-57 70 -160 70q-100 0 -169 -72 q-71 -74 -87 -193zM321 1532h213l221 -328h-172z" />
<glyph unicode="&#xe9;" horiz-adv-x="1087" d="M86 508q0 238 141.5 389.5t350.5 151.5q213 0 325 -136q115 -137 115 -374v-90h-699q2 -141 89 -220q82 -76 229 -75q163 0 301 98v-189q-139 -88 -371 -88q-225 0 -354 140q-127 135 -127 393zM319 612h476q0 123 -60 195q-57 70 -160 70q-100 0 -169 -72 q-71 -74 -87 -193zM406 1219l241 327h215l-284 -327h-172z" />
<glyph unicode="&#xea;" horiz-adv-x="1087" d="M86 508q0 238 141.5 389.5t350.5 151.5q213 0 325 -136q115 -137 115 -374v-90h-699q2 -141 89 -220q82 -76 229 -75q163 0 301 98v-189q-139 -88 -371 -88q-225 0 -354 140q-127 135 -127 393zM319 612h476q0 123 -60 195q-57 70 -160 70q-100 0 -169 -72 q-71 -74 -87 -193zM256 1204l223 328h184l225 -328h-159l-162 211l-158 -211h-153z" />
<glyph unicode="&#xeb;" horiz-adv-x="1087" d="M86 508q0 238 141.5 389.5t350.5 151.5q213 0 325 -136q115 -137 115 -374v-90h-699q2 -141 89 -220q82 -76 229 -75q163 0 301 98v-189q-139 -88 -371 -88q-225 0 -354 140q-127 135 -127 393zM319 612h476q0 123 -60 195q-57 70 -160 70q-100 0 -169 -72 q-71 -74 -87 -193zM231 1321q0 47 37 82q35 33 86 33q49 0 88 -35q37 -33 37 -80q0 -51 -35 -84q-39 -35 -86 -35q-51 0 -90 35q-37 33 -37 84zM651 1321q0 47 35 82q33 33 84 33t90 -35q37 -33 37 -80q0 -49 -35 -84t-88 -35q-47 0 -86 35q-37 33 -37 84z" />
<glyph unicode="&#xec;" horiz-adv-x="534" d="M385 0h-233v1024h233v-1024zM0 1532h213l221 -328h-172z" />
<glyph unicode="&#xed;" horiz-adv-x="534" d="M385 0h-233v1024h233v-1024zM95 1219l241 327h215l-284 -327h-172z" />
<glyph unicode="&#xee;" horiz-adv-x="534" d="M385 0h-233v1024h233v-1024zM-51 1204l223 328h184l225 -328h-159l-162 211l-158 -211h-153z" />
<glyph unicode="&#xef;" horiz-adv-x="534" d="M385 0h-233v1024h233v-1024zM-68 1321q0 47 37 82q35 33 86 33q49 0 88 -35q37 -33 37 -80q0 -51 -35 -84q-39 -35 -86 -35q-51 0 -90 35q-37 33 -37 84zM352 1321q0 47 35 82q33 33 84 33t90 -35q37 -33 37 -80q0 -49 -35 -84t-88 -35q-47 0 -86 35q-37 33 -37 84z" />
<glyph unicode="&#xf0;" horiz-adv-x="1175" d="M86 506q0 240 129 389q127 147 348 147q125 0 209 -75l4 2q-92 158 -196 254l-295 -150l-66 119l256 123q-133 117 -264 201h278q74 -49 154 -119l283 139l63 -113l-241 -118q342 -307 342 -762q0 -246 -135.5 -406t-371 -160t-366.5 142q-131 139 -131 387zM322 510 q0 -160 71 -256q70 -94 199 -94q119 0 190.5 96t71.5 258q0 348 -258 348q-127 0 -201 -94q-73 -95 -73 -258z" />
<glyph unicode="&#xf1;" horiz-adv-x="1193" d="M152 0v1024h233v-170h2q115 195 334 195q164 0 254 -109q88 -106 88 -313v-627h-232v578q0 287 -202 286q-109 0 -176.5 -79.5t-67.5 -200.5v-584h-233zM264 1194q0 121 51 190q53 72 143 72q68 0 156 -51q70 -43 127 -43q80 0 80 113h119q0 -117 -52 -189 q-53 -74 -139 -74q-78 0 -166 48q-76 45 -121 45q-84 0 -83 -111h-115z" />
<glyph unicode="&#xf2;" horiz-adv-x="1222" d="M86 500q0 258 147 403q150 145 398 146q238 0 373 -141.5t135 -391.5q0 -244 -146 -393q-145 -147 -389 -148q-236 0 -377 144t-141 381zM322 506q0 -162 79.5 -254t214.5 -92q137 0 211 92q72 90 72 258q0 170 -72 260q-74 92 -211 92q-135 0 -215 -94q-79 -96 -79 -262 zM358 1532h213l221 -328h-172z" />
<glyph unicode="&#xf3;" horiz-adv-x="1222" d="M86 500q0 258 147 403q150 145 398 146q238 0 373 -141.5t135 -391.5q0 -244 -146 -393q-145 -147 -389 -148q-236 0 -377 144t-141 381zM322 506q0 -162 79.5 -254t214.5 -92q137 0 211 92q72 90 72 258q0 170 -72 260q-74 92 -211 92q-135 0 -215 -94q-79 -96 -79 -262 zM455 1219l241 327h215l-284 -327h-172z" />
<glyph unicode="&#xf4;" horiz-adv-x="1222" d="M86 500q0 258 147 403q150 145 398 146q238 0 373 -141.5t135 -391.5q0 -244 -146 -393q-145 -147 -389 -148q-236 0 -377 144t-141 381zM322 506q0 -162 79.5 -254t214.5 -92q137 0 211 92q72 90 72 258q0 170 -72 260q-74 92 -211 92q-135 0 -215 -94q-79 -96 -79 -262 zM299 1204l223 328h184l225 -328h-159l-162 211l-158 -211h-153z" />
<glyph unicode="&#xf5;" horiz-adv-x="1222" d="M86 500q0 258 147 403q150 145 398 146q238 0 373 -141.5t135 -391.5q0 -244 -146 -393q-145 -147 -389 -148q-236 0 -377 144t-141 381zM322 506q0 -162 79.5 -254t214.5 -92q137 0 211 92q72 90 72 258q0 170 -72 260q-74 92 -211 92q-135 0 -215 -94q-79 -96 -79 -262 zM279 1194q0 121 51 190q53 72 143 72q68 0 156 -51q70 -43 127 -43q80 0 80 113h119q0 -117 -52 -189q-53 -74 -139 -74q-78 0 -166 48q-76 45 -121 45q-84 0 -83 -111h-115z" />
<glyph unicode="&#xf6;" horiz-adv-x="1222" d="M86 500q0 258 147 403q150 145 398 146q238 0 373 -141.5t135 -391.5q0 -244 -146 -393q-145 -147 -389 -148q-236 0 -377 144t-141 381zM322 506q0 -162 79.5 -254t214.5 -92q137 0 211 92q72 90 72 258q0 170 -72 260q-74 92 -211 92q-135 0 -215 -94q-79 -96 -79 -262 zM278 1321q0 47 37 82q35 33 86 33q49 0 88 -35q37 -33 37 -80q0 -51 -35 -84q-39 -35 -86 -35q-51 0 -90 35q-37 33 -37 84zM698 1321q0 47 35 82q33 33 84 33t90 -35q37 -33 37 -80q0 -49 -35 -84t-88 -35q-47 0 -86 35q-37 33 -37 84z" />
<glyph unicode="&#xf7;" horiz-adv-x="1421" d="M233 510v164h957v-164h-957zM592 201q0 49 35 88q33 37 88 37q117 0 116 -123q0 -51 -34.5 -86t-81.5 -35q-49 0 -88 35q-35 33 -35 84zM598 977q0 53 33 88q33 37 88 37q117 0 117 -123q0 -53 -33 -86q-35 -35 -80 -35q-51 0 -90 35q-35 33 -35 84z" />
<glyph unicode="&#xf8;" horiz-adv-x="1222" d="M43 10l145 156q-102 135 -102 340q0 256 145.5 399.5t395.5 143.5q188 0 311 -91l149 162l101 -90l-156 -164q106 -141 107 -344q0 -250 -146 -399q-145 -147 -389 -148q-190 0 -321 97l-140 -152zM313 510q0 -102 35 -178l451 483q-70 59 -183 59q-137 0 -221 -98 q-82 -96 -82 -266zM422 213q78 -61 192 -61q145 0 221 94t76 266q0 106 -34 188z" />
<glyph unicode="&#xf9;" horiz-adv-x="1193" d="M131 412v612h231v-588q0 -276 213 -276q102 0 170 76q66 74 66 198v590h233v-1024h-233v162h-2q-100 -186 -315 -187q-363 1 -363 437zM305 1532h213l221 -328h-172z" />
<glyph unicode="&#xfa;" horiz-adv-x="1193" d="M131 412v612h231v-588q0 -276 213 -276q102 0 170 76q66 74 66 198v590h233v-1024h-233v162h-2q-100 -186 -315 -187q-363 1 -363 437zM455 1219l241 327h215l-284 -327h-172z" />
<glyph unicode="&#xfb;" horiz-adv-x="1193" d="M131 412v612h231v-588q0 -276 213 -276q102 0 170 76q66 74 66 198v590h233v-1024h-233v162h-2q-100 -186 -315 -187q-363 1 -363 437zM273 1204l223 328h184l225 -328h-159l-162 211l-158 -211h-153z" />
<glyph unicode="&#xfc;" horiz-adv-x="1193" d="M131 412v612h231v-588q0 -276 213 -276q102 0 170 76q66 74 66 198v590h233v-1024h-233v162h-2q-100 -186 -315 -187q-363 1 -363 437zM260 1321q0 47 37 82q35 33 86 33q49 0 88 -35q37 -33 37 -80q0 -51 -35 -84q-39 -35 -86 -35q-51 0 -90 35q-37 33 -37 84zM680 1321 q0 47 35 82q33 33 84 33t90 -35q37 -33 37 -80q0 -49 -35 -84t-88 -35q-47 0 -86 35q-37 33 -37 84z" />
<glyph unicode="&#xfd;" horiz-adv-x="1040" d="M6 1024h256l246 -743q8 -41 16 -74h6q4 14 19 72l256 745h233l-463 -1188q-143 -317 -403 -317q-74 0 -123 12v193q55 -18 101 -19q129 0 194 129l70 168zM387 1219l241 327h215l-284 -327h-172z" />
<glyph unicode="&#xfe;" horiz-adv-x="1232" d="M152 -471v1987h231v-662h4q117 195 342 195q199 0 309 -138q111 -138 111 -368q0 -260 -125 -412q-127 -156 -342 -156q-190 0 -299 158v-604h-231zM381 434q0 -113 72 -194q72 -80 180 -80q129 0 203 102q74 101 73 283q0 147 -67 233q-66 84 -189 84t-196 -88 q-76 -92 -76 -223v-117z" />
<glyph unicode="&#xff;" horiz-adv-x="1040" d="M6 1024h256l246 -743q8 -41 16 -74h6q4 14 19 72l256 745h233l-463 -1188q-143 -317 -403 -317q-74 0 -123 12v193q55 -18 101 -19q129 0 194 129l70 168zM192 1321q0 47 37 82q35 33 86 33q49 0 88 -35q37 -33 37 -80q0 -51 -35 -84q-39 -35 -86 -35q-51 0 -90 35 q-37 33 -37 84zM612 1321q0 47 35 82q33 33 84 33t90 -35q37 -33 37 -80q0 -49 -35 -84t-88 -35q-47 0 -86 35q-37 33 -37 84z" />
<glyph unicode="&#x131;" horiz-adv-x="534" d="M385 0h-233v1024h233v-1024z" />
<glyph unicode="&#x152;" horiz-adv-x="1914" d="M86 700q0 344 190.5 551t522.5 207q84 0 182 -10q106 -14 117 -14h702v-201h-534v-410h495v-200h-495v-422h567v-201h-735q-27 0 -142 -14q-113 -10 -186 -11q-315 0 -499.5 200.5t-184.5 524.5zM336 715q0 -233 121 -381q123 -150 319 -150q102 0 248 41v985 q-141 39 -242 39q-201 0 -323.5 -149t-122.5 -385z" />
<glyph unicode="&#x153;" horiz-adv-x="1896" d="M86 498q0 258 143 403q143 147 392 148q286 0 393 -209h4q123 209 393 209q197 0 309 -138q111 -135 111 -370v-92h-701q4 -143 87 -220q84 -78 225 -77q169 0 307 98v-187q-139 -88 -352 -88q-270 0 -385 215h-4q-129 -213 -414 -213q-233 0 -371 142q-137 139 -137 379 zM322 502q0 -158 79 -250q78 -90 213 -90q137 0 211 90q74 88 74 256q0 170 -73.5 262t-209 92t-215.5 -94q-79 -96 -79 -266zM1130 612h476q-4 127 -60 195q-57 70 -157.5 70t-171.5 -76q-71 -74 -87 -189z" />
<glyph unicode="&#x178;" horiz-adv-x="1181" d="M10 1434h271l282 -615q4 -10 31 -84h2q12 39 33 84l295 615h252l-469 -914v-520h-238v516zM260 1683q0 47 37 82q35 33 86 33q49 0 88 -35q37 -33 37 -80q0 -51 -35 -84q-39 -35 -86 -35q-51 0 -90 35q-37 33 -37 84zM680 1683q0 47 35 82q33 33 84 33t90 -35 q37 -33 37 -80q0 -49 -35 -84t-88 -35q-47 0 -86 35q-37 33 -37 84z" />
<glyph unicode="&#x2c6;" horiz-adv-x="770" d="M66 1204l223 328h184l225 -328h-159l-162 211l-158 -211h-153z" />
<glyph unicode="&#x2da;" horiz-adv-x="563" d="M279 1180q-94 0 -156 55t-62 141q0 98 63.5 155.5t162 57.5t157.5 -57q61 -57 62 -150q0 -86 -66 -145q-63 -57 -161 -57zM279 1491q-43 0 -74 -30.5t-31 -74.5q0 -104 105 -104q51 0 79 29q31 31 31 75q0 43 -30.5 74t-79.5 31z" />
<glyph unicode="&#x2dc;" horiz-adv-x="731" d="M35 1194q0 121 51 190q53 72 143 72q68 0 156 -51q70 -43 127 -43q80 0 80 113h119q0 -117 -52 -189q-53 -74 -139 -74q-78 0 -166 48q-76 45 -121 45q-84 0 -83 -111h-115z" />
<glyph unicode="&#x2000;" horiz-adv-x="952" />
<glyph unicode="&#x2001;" horiz-adv-x="1906" />
<glyph unicode="&#x2002;" horiz-adv-x="952" />
<glyph unicode="&#x2003;" horiz-adv-x="1906" />
<glyph unicode="&#x2004;" horiz-adv-x="634" />
<glyph unicode="&#x2005;" horiz-adv-x="475" />
<glyph unicode="&#x2006;" horiz-adv-x="317" />
<glyph unicode="&#x2007;" horiz-adv-x="317" />
<glyph unicode="&#x2008;" horiz-adv-x="237" />
<glyph unicode="&#x2009;" horiz-adv-x="380" />
<glyph unicode="&#x200a;" horiz-adv-x="104" />
<glyph unicode="&#x2010;" horiz-adv-x="821" d="M143 473v172h547v-172h-547z" />
<glyph unicode="&#x2011;" horiz-adv-x="821" d="M143 473v172h547v-172h-547z" />
<glyph unicode="&#x2012;" horiz-adv-x="821" d="M143 473v172h547v-172h-547z" />
<glyph unicode="&#x2013;" horiz-adv-x="1024" d="M0 473v172h1024v-172h-1024z" />
<glyph unicode="&#x2014;" horiz-adv-x="2048" d="M0 473v172h2048v-172h-2048z" />
<glyph unicode="&#x2018;" horiz-adv-x="524" d="M100 1018l164 444h154l-111 -444h-207z" />
<glyph unicode="&#x2019;" horiz-adv-x="524" d="M111 1018l112 444h203l-162 -444h-153z" />
<glyph unicode="&#x201a;" horiz-adv-x="524" d="M88 -227l113 444h205l-164 -444h-154z" />
<glyph unicode="&#x201c;" horiz-adv-x="878" d="M100 1018l164 444h154l-111 -444h-207zM457 1018l161 444h152l-111 -444h-202z" />
<glyph unicode="&#x201d;" horiz-adv-x="878" d="M111 1018l112 444h203l-162 -444h-153zM465 1018l110 444h205l-162 -444h-153z" />
<glyph unicode="&#x201e;" horiz-adv-x="878" d="M88 -227l113 444h205l-164 -444h-154zM442 -227l111 444h207l-164 -444h-154z" />
<glyph unicode="&#x2022;" horiz-adv-x="845" d="M170 612q0 98 76 179q74 76 180 75q100 0 176 -75q74 -74 74 -179q0 -104 -74 -178q-72 -72 -176 -72q-109 0 -180 72q-76 76 -76 178z" />
<glyph unicode="&#x2026;" horiz-adv-x="1665" d="M135 115q0 27 10 53q8 23 29 43q18 18 45 28.5t57 10.5q25 0 56 -10q29 -10 47 -28.5t31 -43.5q10 -20 10 -53t-10 -54q-12 -25 -31 -43t-47 -28q-31 -10 -58 -10q-29 0 -55 10q-23 8 -45 30q-20 20 -29 43q-10 27 -10 52zM688 115q0 31 12.5 55.5t30.5 42.5q16 16 45 27 q27 10 55 10q27 0 58 -10q25 -8 45 -29q18 -18 30.5 -43t12.5 -53.5t-12.5 -53t-30.5 -43.5q-20 -20 -45 -28q-31 -10 -58 -10q-31 0 -57 10t-45 28q-14 14 -29 43q-12 25 -12 54zM1245 115q0 29 12 53q14 29 29 43q18 18 45 28.5t58 10.5q25 0 55.5 -10.5t46.5 -26.5 q18 -18 31 -43q10 -20 10 -55q0 -33 -10 -54q-12 -25 -31 -43q-20 -18 -47 -28q-31 -10 -58 -10q-29 0 -55 10q-23 8 -45 30q-20 20 -29 43q-12 34 -12 52z" />
<glyph unicode="&#x202f;" horiz-adv-x="380" />
<glyph unicode="&#x2039;" horiz-adv-x="671" d="M74 537l313 344h213l-317 -344l315 -336h-211z" />
<glyph unicode="&#x203a;" horiz-adv-x="671" d="M74 201l317 338l-315 342h211l313 -342l-313 -338h-213z" />
<glyph unicode="&#x2044;" horiz-adv-x="516" d="M801 1434l-875 -1434h-188l872 1434h191z" />
<glyph unicode="&#x2215;" horiz-adv-x="516" d="M801 1434l-875 -1434h-188l872 1434h191z" />
<glyph unicode="&#x205f;" horiz-adv-x="475" />
<glyph unicode="&#x20ac;" d="M104 469v162h103q-4 37 -4 69q0 41 6 97h-105v159h127q53 236 201 369q150 133 361 133q144 0 258 -55v-203q-115 80 -250 80q-119 0 -213 -88t-131 -236h465v-159h-492q-8 -72 0 -166h492v-162h-469q68 -315 335 -315q123 0 263 88v-193q-138 -74 -295 -74 q-444 0 -531 494h-121z" />
<glyph unicode="&#x2122;" horiz-adv-x="1579" d="M76 1325v109h518v-109h-197v-553h-131v553h-190zM668 772v662h168l194 -478h4l201 478h162v-662h-127v463h-4l-195 -463h-92l-184 463h-4v-463h-123z" />
<glyph unicode="&#xe000;" horiz-adv-x="1025" d="M0 1025h1025v-1025h-1025v1025z" />
<glyph unicode="&#xfb01;" horiz-adv-x="1236" d="M47 842v182h176v166q0 164 107 256q109 92 264 92q86 0 135 -18v-193q-45 27 -106 27q-168 0 -168 -191v-139h237v-182h-237v-842h-232v842h-176zM836 1370q0 57 41 94q43 39 98 39q57 0 101 -39q41 -37 41 -94q0 -51 -41 -92q-39 -39 -101 -39q-58 0 -98 37 q-41 37 -41 94zM859 0v1024h231v-1024h-231z" />
<glyph unicode="&#xfb02;" horiz-adv-x="1236" d="M47 842v182h176v166q0 164 107 256q109 92 264 92q86 0 135 -18v-193q-45 27 -106 27q-168 0 -168 -191v-139h237v-182h-237v-842h-232v842h-176zM859 0v1516h233v-1516h-233z" />
<glyph unicode="&#xfb03;" horiz-adv-x="1945" d="M1540 1370q0 57 41 94q43 39 98 39q57 0 101 -39q41 -37 41 -94q0 -51 -41 -92q-39 -39 -101 -39q-58 0 -98 37q-41 37 -41 94zM1563 0v1024h231v-1024h-231zM754 842v182h176v166q0 164 107 256q109 92 264 92q86 0 135 -18v-193q-45 27 -106 27q-168 0 -168 -191v-139 h237v-182h-237v-842h-232v842h-176zM47 842v182h176v166q0 164 107 256q109 92 264 92q86 0 135 -18v-193q-45 27 -106 27q-168 0 -168 -191v-139h237v-182h-237v-842h-232v842h-176z" />
<glyph unicode="&#xfb04;" horiz-adv-x="1945" d="M1563 0v1516h233v-1516h-233zM754 842v182h176v166q0 164 107 256q109 92 264 92q86 0 135 -18v-193q-45 27 -106 27q-168 0 -168 -191v-139h237v-182h-237v-842h-232v842h-176zM47 842v182h176v166q0 164 107 256q109 92 264 92q86 0 135 -18v-193q-45 27 -106 27 q-168 0 -168 -191v-139h237v-182h-237v-842h-232v842h-176z" />
<glyph horiz-adv-x="757" d="M676 584h-531v139h181v541l-193 -47v149l363 88v-731h180v-139z" />
<glyph horiz-adv-x="784" d="M686 584h-577v133l231 221q98 96 125 145q27 51 27 102.5t-33 82.5q-37 33 -88 32q-117 0 -215 -102v178q88 78 241 78q127 0 201 -67.5t74 -182.5q0 -141 -195 -323l-153 -146v-4h362v-147z" />
<glyph horiz-adv-x="784" d="M129 616v160q104 -74 219 -74q78 0 119 33q45 35 45 90q0 123 -215 123h-84v142h80q190 0 190 116q0 106 -131 107q-98 0 -192 -68v156q88 53 225 53q123 0 194.5 -61.5t71.5 -155.5q0 -150 -143 -201v-4q174 -43 174 -201q0 -119 -90 -192q-92 -76 -242 -76 q-139 0 -221 53z" />
<glyph horiz-adv-x="780" d="M729 774h-111v-190h-167v190h-396v115l363 545h200v-529h111v-131zM455 1286h-6q-14 -35 -39 -74l-195 -307h236v299q0 12 4 82z" />
</font>
</defs>
</svg>
